<svg width="667" height="475" viewBox="0 0 667 475" fill="none" xmlns="http://www.w3.org/2000/svg">
<rect width="667" height="474.311" fill="white"/>
<path d="M517.619 121.69C517.619 282.062 404.568 412.011 265.178 412.011C125.788 412.011 12.7375 282.062 12.7375 121.69C12.7375 101.639 14.1927 87.0234 17.0038 76.7909C19.8158 66.5555 23.9716 60.7502 29.3374 58.2438C34.7069 55.7357 41.3601 56.4965 49.2508 59.5713C57.1372 62.6445 66.2119 68.0104 76.3928 74.6408C81.7374 78.1214 87.3853 81.9497 93.3225 85.974C109.991 97.272 128.939 110.115 149.856 121.152C178.23 136.123 210.254 147.786 245.193 147.786C280.129 147.786 314.65 136.124 346.765 121.157C367.425 111.529 387.11 100.522 405.271 90.3665C415.333 84.7403 424.926 79.3757 433.96 74.6519C446.637 68.0224 458.211 62.6533 468.442 59.5773C478.676 56.5003 487.534 55.7277 494.796 58.2527C502.045 60.7731 507.748 66.5956 511.642 76.8121C515.54 87.0359 517.619 101.643 517.619 121.69Z" stroke="black" stroke-opacity="0.1" stroke-width="0.463194"/>
<path d="M654.725 124.469C654.725 284.841 541.674 414.791 402.284 414.791C262.894 414.791 149.843 284.841 149.843 124.469C149.843 104.418 151.298 89.8024 154.109 79.57C156.921 69.3346 161.077 63.5292 166.443 61.0228C171.812 58.5147 178.466 59.2755 186.356 62.3504C194.243 65.4236 203.317 70.7894 213.498 77.4198C218.843 80.9005 224.491 84.7287 230.428 88.7531C247.096 100.051 266.044 112.894 286.962 123.931C315.335 138.902 347.36 150.565 382.298 150.565C417.235 150.565 451.755 138.903 483.871 123.936C504.53 114.308 524.215 103.301 542.376 93.1455C552.438 87.5194 562.032 82.1548 571.065 77.431C583.742 70.8015 595.316 65.4324 605.547 62.3564C615.781 59.2794 624.639 58.5067 631.901 61.0317C639.15 63.5522 644.853 69.3747 648.748 79.5911C652.645 89.8149 654.725 104.422 654.725 124.469Z" stroke="black" stroke-opacity="0.1" stroke-width="0.463194"/>
<path d="M26.9913 74.4384C28.6032 74.4384 29.2591 73.5602 29.4926 72.5486H31.3491C30.9822 74.8609 29.0146 75.7947 26.9913 75.7947C24.7458 75.7947 22.5669 74.6608 22.5669 71.7371C22.5669 68.8134 24.7458 67.6906 26.9913 67.6906C29.0146 67.6906 30.9822 68.6244 31.3491 70.9367H29.4926C29.2591 69.9251 28.6032 69.0469 26.9913 69.0469C25.1237 69.0469 24.4011 70.2363 24.4011 71.7371C24.4011 73.249 25.1237 74.4384 26.9913 74.4384ZM35.5468 69.5471C37.281 69.5471 39.0819 70.4364 39.0819 72.6709C39.0819 74.9053 37.281 75.7947 35.5468 75.7947C33.8237 75.7947 32.0117 74.9053 32.0117 72.6709C32.0117 70.4364 33.8237 69.5471 35.5468 69.5471ZM35.5468 74.6274C36.9698 74.6274 37.5034 73.7047 37.5034 72.6709C37.5034 71.6259 36.9698 70.7032 35.5468 70.7032C34.1239 70.7032 33.6014 71.6259 33.6014 72.6709C33.6014 73.7047 34.1239 74.6274 35.5468 74.6274ZM40.0856 67.4238H41.7754V75.6279H40.0856V67.4238ZM46.3161 69.5471C48.0503 69.5471 49.8512 70.4364 49.8512 72.6709C49.8512 74.9053 48.0503 75.7947 46.3161 75.7947C44.593 75.7947 42.781 74.9053 42.781 72.6709C42.781 70.4364 44.593 69.5471 46.3161 69.5471ZM46.3161 74.6274C47.739 74.6274 48.2726 73.7047 48.2726 72.6709C48.2726 71.6259 47.739 70.7032 46.3161 70.7032C44.8932 70.7032 44.3707 71.6259 44.3707 72.6709C44.3707 73.7047 44.8932 74.6274 46.3161 74.6274ZM54.7569 69.5582C55.1459 69.5582 55.435 69.5916 55.6351 69.6472V71.2035H55.5795C55.3683 71.1146 54.9681 71.0145 54.4567 71.0145C53.056 71.0145 52.5446 71.8927 52.5446 72.8154V75.6279H50.8549V69.7027H52.5446V70.7922C52.7892 70.3697 53.4896 69.5582 54.7569 69.5582ZM59.8568 72.0595C61.5243 72.3485 62.6582 72.4708 62.6582 73.8381C62.6582 75.1944 61.5021 75.7947 59.3566 75.7947C57.2666 75.7947 55.966 75.1388 55.966 73.8048H57.8002C57.8002 74.394 58.5006 74.6497 59.4677 74.6497C60.4238 74.6497 60.924 74.4718 60.924 74.016C60.924 73.4824 60.1903 73.4157 58.6117 73.1489C57.0443 72.8932 56.1994 72.5597 56.1994 71.3814C56.1994 70.1919 57.2555 69.5471 59.2565 69.5471C61.3464 69.5471 62.3914 70.3253 62.3914 71.4147H60.6906C60.6906 71.0367 60.257 70.6588 59.2343 70.6588C58.3116 70.6588 57.8113 70.8478 57.8113 71.3035C57.8113 71.8149 58.8007 71.8705 59.8568 72.0595Z" fill="#DF9F71"/>
<path d="M29.8473 320.597H24.8004V322.531H29.525V323.898H24.8004V327H23.0106V319.218H29.8473V320.597ZM33.9391 320.919C35.6733 320.919 37.4742 321.809 37.4742 324.043C37.4742 326.277 35.6733 327.167 33.9391 327.167C32.2161 327.167 30.404 326.277 30.404 324.043C30.404 321.809 32.2161 320.919 33.9391 320.919ZM33.9391 325.999C35.3621 325.999 35.8957 325.077 35.8957 324.043C35.8957 322.998 35.3621 322.075 33.9391 322.075C32.5162 322.075 31.9937 322.998 31.9937 324.043C31.9937 325.077 32.5162 325.999 33.9391 325.999ZM42.4133 320.919C43.9362 320.919 44.8256 321.742 44.8256 323.076V327H43.1358V323.498C43.1358 322.787 42.7245 322.175 41.6796 322.175C40.6346 322.175 40.1677 322.809 40.1677 323.498V327H38.478V321.075H40.1677V321.909C40.4234 321.553 41.146 320.919 42.4133 320.919ZM50.0268 322.231H48.2926V324.721C48.2926 325.688 48.6483 325.877 50.0268 325.733V327C49.8045 327.033 49.5377 327.089 49.1486 327.089C47.0142 327.089 46.6028 326.166 46.6028 324.688V322.231H45.5023V321.075H46.6028V319.541H48.2926V321.075H50.0268V322.231Z" fill="#DF9F71"/>
<path d="M25.6681 38.4831C27.3784 38.4831 28.7726 39.7477 28.7726 41.4337C28.7726 43.1197 27.3784 44.3923 25.6681 44.3923C23.9577 44.3923 22.5635 43.1197 22.5635 41.4337C22.5635 39.7477 23.9577 38.4831 25.6681 38.4831ZM25.6681 43.9303C27.0704 43.9303 28.2295 42.8603 28.2295 41.4337C28.2295 40.0152 27.0704 38.9452 25.6681 38.9452C24.2657 38.9452 23.1066 40.0152 23.1066 41.4337C23.1066 42.8603 24.2657 43.9303 25.6681 43.9303ZM25.6843 40.4529C25.0034 40.4529 24.7359 40.8825 24.7359 41.4337C24.7359 41.9849 25.0034 42.4145 25.6843 42.4145C26.2679 42.4145 26.5111 42.0984 26.5921 41.7336H27.273C27.1352 42.5766 26.4219 42.909 25.6843 42.909C24.8656 42.909 24.0631 42.5037 24.0631 41.4337C24.0631 40.3718 24.8656 39.9584 25.6843 39.9584C26.4219 39.9584 27.1352 40.2989 27.273 41.1419H26.5921C26.5111 40.769 26.2679 40.4529 25.6843 40.4529ZM32.9183 43.2737H36.874V44.2708H31.5322C31.6457 41.0122 35.5933 41.9363 35.5933 40.2583C35.5933 39.7801 35.3339 39.3343 34.3369 39.3343C33.4371 39.3343 33.048 39.7152 32.9751 40.307H31.7997C31.9375 39.0262 32.9345 38.4831 34.3612 38.4831C35.7068 38.4831 36.793 38.9452 36.793 40.2664C36.793 42.5523 33.4128 41.993 32.9183 43.2737ZM40.1306 38.4831C41.5572 38.4831 42.8947 39.3099 42.8947 41.4337C42.8947 43.5655 41.5572 44.3923 40.1306 44.3923C38.6958 44.3923 37.3583 43.5655 37.3583 41.4337C37.3583 39.3099 38.6958 38.4831 40.1306 38.4831ZM40.1306 43.4764C41.3302 43.4764 41.7193 42.5523 41.7193 41.4337C41.7193 40.3232 41.3302 39.391 40.1306 39.391C38.9228 39.391 38.5418 40.3232 38.5418 41.4337C38.5418 42.5523 38.9228 43.4764 40.1306 43.4764ZM44.5231 43.2737H48.4788V44.2708H43.137C43.2505 41.0122 47.198 41.9363 47.198 40.2583C47.198 39.7801 46.9386 39.3343 45.9416 39.3343C45.0419 39.3343 44.6528 39.7152 44.5798 40.307H43.4045C43.5423 39.0262 44.5393 38.4831 45.9659 38.4831C47.3115 38.4831 48.3977 38.9452 48.3977 40.2664C48.3977 42.5523 45.0175 41.993 44.5231 43.2737ZM53.2897 41.2391C53.9463 41.3688 54.4975 41.7012 54.4975 42.5442C54.4975 43.987 53.1763 44.3923 51.7577 44.3923C50.3068 44.3923 49.1233 43.8736 49.0422 42.6415H50.2095C50.2743 43.1035 50.6958 43.4683 51.8064 43.4683C52.9007 43.4683 53.2978 43.0549 53.2978 42.4956C53.2978 41.9525 52.9007 41.7336 52.1144 41.7336H51.012V40.8825H52.1225C52.852 40.8825 53.0871 40.5664 53.0871 40.1854C53.0871 39.7801 52.8034 39.3343 51.7334 39.3343C50.8742 39.3343 50.4608 39.6099 50.3716 40.0719H49.2125C49.3584 38.9209 50.4202 38.4831 51.7577 38.4831C53.0222 38.4831 54.2138 38.8398 54.2138 40.0557C54.2138 40.696 53.8085 41.0446 53.2897 41.2391Z" fill="#0CCA08"/>
<path d="M83.5132 26.4236H78.6038C77.563 26.4236 76.7185 25.5792 76.7185 24.5383C76.7185 23.4976 77.563 22.6531 78.6038 22.6531H85.9287V21.4945H78.6038C76.915 21.4945 75.56 22.8691 75.56 24.5383C75.56 26.2074 76.9346 27.5821 78.6038 27.5821L83.5132 27.5822C84.5148 27.5822 85.3395 28.407 85.3395 29.4084C85.3395 30.41 84.5147 31.2347 83.5132 31.2347H75.6974V32.3933L83.5132 32.3933C85.1628 32.3933 86.4982 31.058 86.4982 29.4083C86.4982 27.7588 85.1628 26.4235 83.5132 26.4235V26.4236ZM121.276 21.4749H115.365V32.3934H121.276C124.281 32.3934 126.736 29.9387 126.736 26.9342C126.736 23.9295 124.281 21.4749 121.276 21.4749V21.4749ZM121.276 31.2545H116.504V22.6139H121.276C123.653 22.6139 125.597 24.558 125.597 26.9342C125.597 29.3103 123.653 31.2545 121.276 31.2545ZM68.3529 21.4749H62.442V32.3934H68.3529C71.3575 32.3934 73.8122 29.9387 73.8122 26.9342C73.8122 23.9295 71.3575 21.4749 68.3529 21.4749V21.4749ZM68.3529 31.2545H63.5809V22.6139H68.3529C70.729 22.6139 72.6731 24.558 72.6731 26.9342C72.6731 29.3103 70.729 31.2545 68.3529 31.2545ZM107.628 21.4749C104.525 21.4749 101.992 24.0082 101.992 27.1109V32.4131H103.17V27.1109C103.17 24.6562 105.173 22.6532 107.628 22.6532C110.083 22.6532 112.086 24.6563 112.086 27.1109V32.4131H113.264V27.1109C113.264 24.0082 110.731 21.4749 107.628 21.4749ZM94.2549 21.4749C91.1522 21.4749 88.6189 24.0082 88.6189 27.1109V32.4131H89.7972V27.5233H98.7126V32.4131H99.8909V27.1109C99.8909 24.0082 97.3576 21.4749 94.2549 21.4749H94.2549ZM94.2549 22.6532C96.4544 22.6532 98.2807 24.2438 98.6342 26.3451L89.8758 26.345C90.2293 24.2437 92.0556 22.6532 94.255 22.6532H94.2549ZM41.41 21.4749C38.3073 21.4749 35.7741 24.0082 35.7741 27.1109V32.4131H36.9523V27.5233H45.8678V32.4131H47.0461V27.1109C47.0461 24.0082 44.5127 21.4749 41.41 21.4749H41.41ZM41.41 22.6532C43.6095 22.6532 45.4359 24.2438 45.7893 26.3451L37.0113 26.345C37.3844 24.2437 39.2107 22.6532 41.41 22.6532ZM32.4357 26.9342C31.3949 25.5988 29.7846 24.7347 27.9584 24.7347C26.1516 24.7347 24.5413 25.5988 23.5006 26.9342V21.4749H22.3223V32.3934H23.5006V30.3707C23.5006 27.9159 25.5036 25.913 27.9583 25.913C30.413 25.913 32.416 27.916 32.416 30.3707V32.3934H33.5943V30.3707C33.614 29.0746 33.1623 27.8767 32.4357 26.9342H33.614V21.4749H32.4357V26.9342L32.4357 26.9342ZM57.238 27.7C58.9465 27.7 60.3604 26.3057 60.3604 24.5776C60.3604 22.8494 58.9464 21.4749 57.238 21.4749H49.1669V22.6532H57.238C58.2985 22.6532 59.1821 23.5173 59.1821 24.5973C59.1821 25.6774 58.318 26.5414 57.238 26.5414L49.1669 26.5414V32.413H50.3452V27.6999H56.8453L56.0401 28.5051L59.9087 32.3737H61.578L56.8845 27.6999H57.238V27.7ZM136.476 26.4236H131.567C130.526 26.4236 129.681 25.5792 129.681 24.5383C129.681 23.4976 130.526 22.6531 131.567 22.6531H138.891V21.4945H131.567C129.878 21.4945 128.523 22.8691 128.523 24.5383C128.523 26.2074 129.897 27.5821 131.567 27.5821L136.476 27.5822C137.477 27.5822 138.302 28.407 138.302 29.4084C138.302 30.41 137.477 31.2347 136.476 31.2347H128.66V32.3933L136.476 32.3933C138.125 32.3933 139.461 31.058 139.461 29.4083C139.461 27.7588 138.126 26.4235 136.476 26.4235V26.4236Z" fill="#DF9F71"/>
<path d="M142.342 21.7015C143.142 21.6514 143.734 22.2677 143.773 23.0707C143.814 23.9099 143.284 24.5711 142.507 24.6169C141.663 24.6665 141.104 24.046 141.064 23.2443C141.023 22.4005 141.561 21.7503 142.342 21.7015H142.342ZM142.074 22.4898C142.189 22.4777 142.507 22.4812 142.62 22.4972C142.786 22.5207 142.895 22.5961 142.886 22.7787C142.877 22.9548 142.779 23.0288 142.612 23.0505C142.49 23.0663 142.2 23.0691 142.074 23.0578L142.074 22.4897V22.4898ZM141.752 24.1702L142.073 24.1702L142.074 23.3375L142.381 23.3337C142.403 23.3919 142.469 23.4847 142.503 23.5434C142.559 23.6391 142.859 24.1206 142.879 24.1697L143.241 24.1701C143.225 24.1236 143.14 24.0053 143.109 23.9566C143.062 23.882 143.02 23.8133 142.971 23.7389C142.924 23.6695 142.883 23.5997 142.835 23.5268C142.812 23.49 142.791 23.4552 142.766 23.418C142.751 23.3945 142.705 23.3332 142.706 23.3084C143.311 23.2574 143.279 22.6203 143.088 22.4008C142.972 22.2681 142.755 22.2159 142.516 22.2138C142.263 22.2114 142.008 22.2138 141.755 22.2138L141.752 24.1703L141.752 24.1702ZM142.248 21.4C141.307 21.4961 140.6 22.2751 140.692 23.3339C140.774 24.2867 141.541 25.0159 142.594 24.9186C143.532 24.832 144.236 24.0305 144.146 22.9848C144.061 21.9937 143.227 21.2999 142.248 21.4H142.248Z" fill="#DF9F71"/>
<rect x="22" y="97" width="620" height="201" fill="white"/>
<rect x="22.4647" y="97.4647" width="619.071" height="200.071" stroke="#2C2C2C" stroke-opacity="0.1" stroke-width="0.929412"/>
<rect x="22" y="348" width="620" height="79" fill="white"/>
<rect x="22.4647" y="348.465" width="619.071" height="78.0706" stroke="#2C2C2C" stroke-opacity="0.1" stroke-width="0.929412"/>
<rect x="40" y="139" width="78" height="44" rx="5" fill="#DF9F71"/>
<rect x="40" y="231" width="78" height="44" rx="5" fill="#081CCA"/>
<rect x="134" y="139" width="78" height="44" rx="5" fill="black"/>
<rect x="134" y="231" width="78" height="44" rx="5" fill="#D7AA09"/>
<rect x="229" y="139" width="78" height="44" rx="5" fill="#0CCA08"/>
<rect x="229" y="231" width="78" height="44" rx="5" fill="#F84040"/>
<rect x="324" y="231" width="78" height="44" rx="5" fill="#0884CA"/>
<rect x="419" y="231" width="78" height="44" rx="5" fill="#FF7A00"/>
<rect x="514" y="231" width="78" height="44" rx="5" fill="#6147FF"/>
<path d="M78.2732 173.178L77.8361 174.563H78.9986V175.186H77.6408L77.0828 177H76.3481L76.9154 175.186H75.0832L74.5252 177H73.7905L74.3578 175.186H73.372V174.563H74.5531L74.9809 173.178H73.8835V172.554H75.1856L75.7715 170.667H76.5062L75.911 172.554H77.7431L78.329 170.667H79.0637L78.4685 172.554H79.5102V173.178H78.2732ZM77.5385 173.178H75.7157L75.2786 174.563H77.1107L77.5385 173.178ZM82.972 170.676C84.9251 170.676 86.3108 171.969 86.3108 173.791C86.3108 175.67 84.9251 177 82.972 177H80.7493V170.676H82.972ZM82.972 176.321C84.4786 176.321 85.5575 175.27 85.5575 173.791C85.5575 172.378 84.4786 171.355 82.972 171.355H81.484V176.321H82.972ZM92.113 171.355H88.5046V173.68H91.7224V174.359H88.5046V177H87.7698V170.676H92.113V171.355ZM95.1465 170.564C96.5136 170.564 97.4902 171.476 97.4902 172.731C97.4902 173.271 97.2949 173.717 96.9787 174.21L95.0163 177H94.1514L95.6301 174.87C95.472 174.898 95.3139 174.917 95.1372 174.917C93.7794 174.917 92.7936 174.015 92.7936 172.75C92.7936 171.466 93.7794 170.564 95.1465 170.564ZM96.3369 173.838L96.3741 173.791C96.6531 173.429 96.774 173.103 96.774 172.703C96.774 171.81 96.0858 171.169 95.1465 171.169C94.1979 171.169 93.519 171.81 93.519 172.713C93.519 173.605 94.1979 174.266 95.1465 174.266C95.6301 174.266 96.0486 174.117 96.3369 173.838ZM103.239 171.355H99.6303V173.68H102.848V174.359H99.6303V177H98.8956V170.676H103.239V171.355ZM103.71 170.676H108.044V171.122L105.161 177H104.333L107.124 171.355H103.71V170.676ZM111.206 176.386H112.852V177H108.695V176.386H110.48V171.504L108.797 172.108V171.42L110.796 170.676H111.206V176.386Z" fill="white"/>
<path d="M74.2732 265.178L73.8361 266.563H74.9986V267.186H73.6408L73.0828 269H72.3481L72.9154 267.186H71.0832L70.5252 269H69.7905L70.3578 267.186H69.372V266.563H70.5531L70.9809 265.178H69.8835V264.554H71.1856L71.7715 262.667H72.5062L71.911 264.554H73.7431L74.329 262.667H75.0637L74.4685 264.554H75.5102V265.178H74.2732ZM73.5385 265.178H71.7157L71.2786 266.563H73.1107L73.5385 265.178ZM79.2231 262.564C80.953 262.564 81.9667 263.903 81.9667 265.838C81.9667 267.772 80.953 269.112 79.2231 269.112C77.4933 269.112 76.4796 267.772 76.4796 265.838C76.4796 263.903 77.4933 262.564 79.2231 262.564ZM79.2231 268.442C80.5159 268.442 81.2227 267.372 81.2227 265.838C81.2227 264.303 80.5159 263.225 79.2231 263.225C77.9304 263.225 77.2236 264.303 77.2236 265.838C77.2236 267.372 77.9304 268.442 79.2231 268.442ZM86.6065 265.652C87.3691 265.94 87.8155 266.508 87.8155 267.252C87.8155 268.368 86.8855 269.112 85.4346 269.112C83.9838 269.112 83.0538 268.368 83.0538 267.252C83.0538 266.508 83.5002 265.931 84.2628 265.652C83.6862 265.401 83.3235 264.917 83.3235 264.266C83.3235 263.262 84.207 262.564 85.4346 262.564C86.6623 262.564 87.5458 263.262 87.5458 264.266C87.5458 264.927 87.1924 265.401 86.6065 265.652ZM85.4346 263.141C84.6162 263.141 84.0396 263.634 84.0396 264.303C84.0396 265.001 84.6162 265.457 85.4346 265.457C86.2438 265.457 86.8297 264.992 86.8297 264.303C86.8297 263.643 86.2438 263.141 85.4346 263.141ZM85.4346 268.498C86.374 268.498 87.025 267.968 87.025 267.205C87.025 266.48 86.374 265.959 85.4346 265.959C84.486 265.959 83.8443 266.48 83.8443 267.205C83.8443 267.968 84.486 268.498 85.4346 268.498ZM91.3117 268.386H92.9579V269H88.8007V268.386H90.5863V263.504L88.903 264.108V263.42L90.9025 262.676H91.3117V268.386ZM96.683 268.433C97.8362 268.433 98.6732 267.763 98.9336 266.74H99.6962C99.3986 268.163 98.2361 269.121 96.683 269.121C94.8601 269.121 93.3907 267.707 93.3907 265.838C93.3907 263.969 94.8601 262.564 96.683 262.564C98.2361 262.564 99.3986 263.513 99.6962 264.936H98.9336C98.6732 263.903 97.8362 263.252 96.683 263.252C95.2507 263.252 94.1347 264.359 94.1347 265.838C94.1347 267.317 95.2507 268.433 96.683 268.433ZM104.176 268.433C105.329 268.433 106.166 267.763 106.426 266.74H107.189C106.891 268.163 105.729 269.121 104.176 269.121C102.353 269.121 100.884 267.707 100.884 265.838C100.884 263.969 102.353 262.564 104.176 262.564C105.729 262.564 106.891 263.513 107.189 264.936H106.426C106.166 263.903 105.329 263.252 104.176 263.252C102.744 263.252 101.628 264.359 101.628 265.838C101.628 267.317 102.744 268.433 104.176 268.433ZM113.25 269L112.469 267.233H109.205L108.424 269H107.633L110.488 262.676H111.186L114.041 269H113.25ZM109.493 266.573H112.172L110.832 263.541L109.493 266.573Z" fill="white"/>
<path d="M172.273 173.178L171.836 174.563H172.999V175.186H171.641L171.083 177H170.348L170.915 175.186H169.083L168.525 177H167.791L168.358 175.186H167.372V174.563H168.553L168.981 173.178H167.884V172.554H169.186L169.771 170.667H170.506L169.911 172.554H171.743L172.329 170.667H173.064L172.469 172.554H173.51V173.178H172.273ZM171.539 173.178H169.716L169.279 174.563H171.111L171.539 173.178ZM177.223 170.564C178.953 170.564 179.967 171.903 179.967 173.838C179.967 175.772 178.953 177.112 177.223 177.112C175.493 177.112 174.48 175.772 174.48 173.838C174.48 171.903 175.493 170.564 177.223 170.564ZM177.223 176.442C178.516 176.442 179.223 175.372 179.223 173.838C179.223 172.303 178.516 171.225 177.223 171.225C175.93 171.225 175.224 172.303 175.224 173.838C175.224 175.372 175.93 176.442 177.223 176.442ZM183.899 170.564C185.628 170.564 186.642 171.903 186.642 173.838C186.642 175.772 185.628 177.112 183.899 177.112C182.169 177.112 181.155 175.772 181.155 173.838C181.155 171.903 182.169 170.564 183.899 170.564ZM183.899 176.442C185.191 176.442 185.898 175.372 185.898 173.838C185.898 172.303 185.191 171.225 183.899 171.225C182.606 171.225 181.899 172.303 181.899 173.838C181.899 175.372 182.606 176.442 183.899 176.442ZM190.574 170.564C192.304 170.564 193.318 171.903 193.318 173.838C193.318 175.772 192.304 177.112 190.574 177.112C188.844 177.112 187.83 175.772 187.83 173.838C187.83 171.903 188.844 170.564 190.574 170.564ZM190.574 176.442C191.867 176.442 192.574 175.372 192.574 173.838C192.574 172.303 191.867 171.225 190.574 171.225C189.281 171.225 188.574 172.303 188.574 173.838C188.574 175.372 189.281 176.442 190.574 176.442ZM197.249 170.564C198.979 170.564 199.993 171.903 199.993 173.838C199.993 175.772 198.979 177.112 197.249 177.112C195.52 177.112 194.506 175.772 194.506 173.838C194.506 171.903 195.52 170.564 197.249 170.564ZM197.249 176.442C198.542 176.442 199.249 175.372 199.249 173.838C199.249 172.303 198.542 171.225 197.249 171.225C195.957 171.225 195.25 172.303 195.25 173.838C195.25 175.372 195.957 176.442 197.249 176.442ZM203.925 170.564C205.655 170.564 206.668 171.903 206.668 173.838C206.668 175.772 205.655 177.112 203.925 177.112C202.195 177.112 201.181 175.772 201.181 173.838C201.181 171.903 202.195 170.564 203.925 170.564ZM203.925 176.442C205.218 176.442 205.924 175.372 205.924 173.838C205.924 172.303 205.218 171.225 203.925 171.225C202.632 171.225 201.925 172.303 201.925 173.838C201.925 175.372 202.632 176.442 203.925 176.442Z" fill="white"/>
<path d="M168.273 265.178L167.836 266.563H168.999V267.186H167.641L167.083 269H166.348L166.915 267.186H165.083L164.525 269H163.791L164.358 267.186H163.372V266.563H164.553L164.981 265.178H163.884V264.554H165.186L165.771 262.667H166.506L165.911 264.554H167.743L168.329 262.667H169.064L168.469 264.554H169.51V265.178H168.273ZM167.539 265.178H165.716L165.279 266.563H167.111L167.539 265.178ZM172.972 262.676C174.925 262.676 176.311 263.969 176.311 265.791C176.311 267.67 174.925 269 172.972 269H170.749V262.676H172.972ZM172.972 268.321C174.479 268.321 175.557 267.27 175.557 265.791C175.557 264.378 174.479 263.355 172.972 263.355H171.484V268.321H172.972ZM176.954 262.676H181.288V263.122L178.404 269H177.577L180.367 263.355H176.954V262.676ZM186.398 269L185.616 267.233H182.352L181.571 269H180.78L183.635 262.676H184.333L187.188 269H186.398ZM182.64 266.573H185.319L183.98 263.541L182.64 266.573ZM193.346 269L192.564 267.233H189.3L188.519 269H187.728L190.583 262.676H191.281L194.136 269H193.346ZM189.588 266.573H192.267L190.927 263.541L189.588 266.573ZM197.327 262.564C199.057 262.564 200.071 263.903 200.071 265.838C200.071 267.772 199.057 269.112 197.327 269.112C195.598 269.112 194.584 267.772 194.584 265.838C194.584 263.903 195.598 262.564 197.327 262.564ZM197.327 268.442C198.62 268.442 199.327 267.372 199.327 265.838C199.327 264.303 198.62 263.225 197.327 263.225C196.035 263.225 195.328 264.303 195.328 265.838C195.328 267.372 196.035 268.442 197.327 268.442ZM203.547 262.564C204.914 262.564 205.891 263.476 205.891 264.731C205.891 265.271 205.695 265.717 205.379 266.21L203.417 269H202.552L204.031 266.87C203.873 266.898 203.715 266.917 203.538 266.917C202.18 266.917 201.194 266.015 201.194 264.75C201.194 263.466 202.18 262.564 203.547 262.564ZM204.738 265.838L204.775 265.791C205.054 265.429 205.175 265.103 205.175 264.703C205.175 263.81 204.486 263.169 203.547 263.169C202.599 263.169 201.92 263.81 201.92 264.713C201.92 265.605 202.599 266.266 203.547 266.266C204.031 266.266 204.449 266.117 204.738 265.838Z" fill="white"/>
<path d="M260.273 173.178L259.836 174.563H260.999V175.186H259.641L259.083 177H258.348L258.915 175.186H257.083L256.525 177H255.791L256.358 175.186H255.372V174.563H256.553L256.981 173.178H255.884V172.554H257.186L257.771 170.667H258.506L257.911 172.554H259.743L260.329 170.667H261.064L260.469 172.554H261.51V173.178H260.273ZM259.539 173.178H257.716L257.279 174.563H259.111L259.539 173.178ZM265.223 170.564C266.953 170.564 267.967 171.903 267.967 173.838C267.967 175.772 266.953 177.112 265.223 177.112C263.493 177.112 262.48 175.772 262.48 173.838C262.48 171.903 263.493 170.564 265.223 170.564ZM265.223 176.442C266.516 176.442 267.223 175.372 267.223 173.838C267.223 172.303 266.516 171.225 265.223 171.225C263.93 171.225 263.224 172.303 263.224 173.838C263.224 175.372 263.93 176.442 265.223 176.442ZM272.447 176.433C273.601 176.433 274.438 175.763 274.698 174.74H275.461C275.163 176.163 274 177.121 272.447 177.121C270.624 177.121 269.155 175.707 269.155 173.838C269.155 171.969 270.624 170.564 272.447 170.564C274 170.564 275.163 171.513 275.461 172.936H274.698C274.438 171.903 273.601 171.252 272.447 171.252C271.015 171.252 269.899 172.359 269.899 173.838C269.899 175.317 271.015 176.433 272.447 176.433ZM279.94 176.433C281.093 176.433 281.93 175.763 282.191 174.74H282.953C282.656 176.163 281.493 177.121 279.94 177.121C278.117 177.121 276.648 175.707 276.648 173.838C276.648 171.969 278.117 170.564 279.94 170.564C281.493 170.564 282.656 171.513 282.953 172.936H282.191C281.93 171.903 281.093 171.252 279.94 171.252C278.508 171.252 277.392 172.359 277.392 173.838C277.392 175.317 278.508 176.433 279.94 176.433ZM289.015 177L288.234 175.233H284.969L284.188 177H283.397L286.253 170.676H286.95L289.805 177H289.015ZM285.257 174.573H287.936L286.597 171.541L285.257 174.573ZM292.997 170.564C294.726 170.564 295.74 171.903 295.74 173.838C295.74 175.772 294.726 177.112 292.997 177.112C291.267 177.112 290.253 175.772 290.253 173.838C290.253 171.903 291.267 170.564 292.997 170.564ZM292.997 176.442C294.289 176.442 294.996 175.372 294.996 173.838C294.996 172.303 294.289 171.225 292.997 171.225C291.704 171.225 290.997 172.303 290.997 173.838C290.997 175.372 291.704 176.442 292.997 176.442ZM300.38 173.652C301.143 173.94 301.589 174.508 301.589 175.252C301.589 176.368 300.659 177.112 299.208 177.112C297.757 177.112 296.827 176.368 296.827 175.252C296.827 174.508 297.274 173.931 298.036 173.652C297.46 173.401 297.097 172.917 297.097 172.266C297.097 171.262 297.981 170.564 299.208 170.564C300.436 170.564 301.319 171.262 301.319 172.266C301.319 172.927 300.966 173.401 300.38 173.652ZM299.208 171.141C298.39 171.141 297.813 171.634 297.813 172.303C297.813 173.001 298.39 173.457 299.208 173.457C300.017 173.457 300.603 172.992 300.603 172.303C300.603 171.643 300.017 171.141 299.208 171.141ZM299.208 176.498C300.147 176.498 300.798 175.968 300.798 175.205C300.798 174.48 300.147 173.959 299.208 173.959C298.26 173.959 297.618 174.48 297.618 175.205C297.618 175.968 298.26 176.498 299.208 176.498Z" fill="white"/>
<path d="M260.273 265.178L259.836 266.563H260.999V267.186H259.641L259.083 269H258.348L258.915 267.186H257.083L256.525 269H255.791L256.358 267.186H255.372V266.563H256.553L256.981 265.178H255.884V264.554H257.186L257.771 262.667H258.506L257.911 264.554H259.743L260.329 262.667H261.064L260.469 264.554H261.51V265.178H260.273ZM259.539 265.178H257.716L257.279 266.563H259.111L259.539 265.178ZM267.092 263.355H263.484V265.68H266.702V266.359H263.484V269H262.749V262.676H267.092V263.355ZM271.517 265.652C272.279 265.94 272.726 266.508 272.726 267.252C272.726 268.368 271.796 269.112 270.345 269.112C268.894 269.112 267.964 268.368 267.964 267.252C267.964 266.508 268.41 265.931 269.173 265.652C268.596 265.401 268.234 264.917 268.234 264.266C268.234 263.262 269.117 262.564 270.345 262.564C271.572 262.564 272.456 263.262 272.456 264.266C272.456 264.927 272.103 265.401 271.517 265.652ZM270.345 263.141C269.526 263.141 268.95 263.634 268.95 264.303C268.95 265.001 269.526 265.457 270.345 265.457C271.154 265.457 271.74 264.992 271.74 264.303C271.74 263.643 271.154 263.141 270.345 263.141ZM270.345 268.498C271.284 268.498 271.935 267.968 271.935 267.205C271.935 266.48 271.284 265.959 270.345 265.959C269.396 265.959 268.754 266.48 268.754 267.205C268.754 267.968 269.396 268.498 270.345 268.498ZM278.817 266.991V267.624H277.822V269H277.115V267.624H273.729V267.168L275.645 262.676H276.389L274.594 266.991H277.115V264.964H277.822V266.991H278.817ZM282.57 262.564C284.3 262.564 285.314 263.903 285.314 265.838C285.314 267.772 284.3 269.112 282.57 269.112C280.84 269.112 279.827 267.772 279.827 265.838C279.827 263.903 280.84 262.564 282.57 262.564ZM282.57 268.442C283.863 268.442 284.57 267.372 284.57 265.838C284.57 264.303 283.863 263.225 282.57 263.225C281.277 263.225 280.571 264.303 280.571 265.838C280.571 267.372 281.277 268.442 282.57 268.442ZM291.196 266.991V267.624H290.201V269H289.494V267.624H286.109V267.168L288.024 262.676H288.768L286.973 266.991H289.494V264.964H290.201V266.991H291.196ZM294.949 262.564C296.679 262.564 297.693 263.903 297.693 265.838C297.693 267.772 296.679 269.112 294.949 269.112C293.219 269.112 292.206 267.772 292.206 265.838C292.206 263.903 293.219 262.564 294.949 262.564ZM294.949 268.442C296.242 268.442 296.949 267.372 296.949 265.838C296.949 264.303 296.242 263.225 294.949 263.225C293.657 263.225 292.95 264.303 292.95 265.838C292.95 267.372 293.657 268.442 294.949 268.442Z" fill="white"/>
<path d="M355.273 265.178L354.836 266.563H355.999V267.186H354.641L354.083 269H353.348L353.915 267.186H352.083L351.525 269H350.791L351.358 267.186H350.372V266.563H351.553L351.981 265.178H350.884V264.554H352.186L352.771 262.667H353.506L352.911 264.554H354.743L355.329 262.667H356.064L355.469 264.554H356.51V265.178H355.273ZM354.539 265.178H352.716L352.279 266.563H354.111L354.539 265.178ZM360.223 262.564C361.953 262.564 362.967 263.903 362.967 265.838C362.967 267.772 361.953 269.112 360.223 269.112C358.493 269.112 357.48 267.772 357.48 265.838C357.48 263.903 358.493 262.564 360.223 262.564ZM360.223 268.442C361.516 268.442 362.223 267.372 362.223 265.838C362.223 264.303 361.516 263.225 360.223 263.225C358.93 263.225 358.224 264.303 358.224 265.838C358.224 267.372 358.93 268.442 360.223 268.442ZM367.606 265.652C368.369 265.94 368.816 266.508 368.816 267.252C368.816 268.368 367.885 269.112 366.435 269.112C364.984 269.112 364.054 268.368 364.054 267.252C364.054 266.508 364.5 265.931 365.263 265.652C364.686 265.401 364.323 264.917 364.323 264.266C364.323 263.262 365.207 262.564 366.435 262.564C367.662 262.564 368.546 263.262 368.546 264.266C368.546 264.927 368.192 265.401 367.606 265.652ZM366.435 263.141C365.616 263.141 365.04 263.634 365.04 264.303C365.04 265.001 365.616 265.457 366.435 265.457C367.244 265.457 367.83 264.992 367.83 264.303C367.83 263.643 367.244 263.141 366.435 263.141ZM366.435 268.498C367.374 268.498 368.025 267.968 368.025 267.205C368.025 266.48 367.374 265.959 366.435 265.959C365.486 265.959 364.844 266.48 364.844 267.205C364.844 267.968 365.486 268.498 366.435 268.498ZM373.446 265.652C374.209 265.94 374.655 266.508 374.655 267.252C374.655 268.368 373.725 269.112 372.275 269.112C370.824 269.112 369.894 268.368 369.894 267.252C369.894 266.508 370.34 265.931 371.103 265.652C370.526 265.401 370.163 264.917 370.163 264.266C370.163 263.262 371.047 262.564 372.275 262.564C373.502 262.564 374.386 263.262 374.386 264.266C374.386 264.927 374.032 265.401 373.446 265.652ZM372.275 263.141C371.456 263.141 370.879 263.634 370.879 264.303C370.879 265.001 371.456 265.457 372.275 265.457C373.084 265.457 373.67 264.992 373.67 264.303C373.67 263.643 373.084 263.141 372.275 263.141ZM372.275 268.498C373.214 268.498 373.865 267.968 373.865 267.205C373.865 266.48 373.214 265.959 372.275 265.959C371.326 265.959 370.684 266.48 370.684 267.205C370.684 267.968 371.326 268.498 372.275 268.498ZM380.746 266.991V267.624H379.751V269H379.044V267.624H375.659V267.168L377.575 262.676H378.319L376.524 266.991H379.044V264.964H379.751V266.991H380.746ZM385.049 268.433C386.202 268.433 387.039 267.763 387.299 266.74H388.062C387.764 268.163 386.602 269.121 385.049 269.121C383.226 269.121 381.756 267.707 381.756 265.838C381.756 263.969 383.226 262.564 385.049 262.564C386.602 262.564 387.764 263.513 388.062 264.936H387.299C387.039 263.903 386.202 263.252 385.049 263.252C383.616 263.252 382.5 264.359 382.5 265.838C382.5 267.317 383.616 268.433 385.049 268.433ZM394.123 269L393.342 267.233H390.078L389.296 269H388.506L391.361 262.676H392.059L394.914 269H394.123ZM390.366 266.573H393.044L391.705 263.541L390.366 266.573Z" fill="white"/>
<path d="M455.273 265.178L454.836 266.563H455.999V267.186H454.641L454.083 269H453.348L453.915 267.186H452.083L451.525 269H450.791L451.358 267.186H450.372V266.563H451.553L451.981 265.178H450.884V264.554H452.186L452.771 262.667H453.506L452.911 264.554H454.743L455.329 262.667H456.064L455.469 264.554H456.51V265.178H455.273ZM454.539 265.178H452.716L452.279 266.563H454.111L454.539 265.178ZM462.092 263.355H458.484V265.68H461.702V266.359H458.484V269H457.749V262.676H462.092V263.355ZM467.633 263.355H464.024V265.68H467.242V266.359H464.024V269H463.289V262.676H467.633V263.355ZM468.104 262.676H472.438V263.122L469.555 269H468.727L471.517 263.355H468.104V262.676ZM477.548 269L476.767 267.233H473.503L472.721 269H471.931L474.786 262.676H475.484L478.339 269H477.548ZM473.791 266.573H476.469L475.13 263.541L473.791 266.573ZM481.53 262.564C483.26 262.564 484.274 263.903 484.274 265.838C484.274 267.772 483.26 269.112 481.53 269.112C479.8 269.112 478.787 267.772 478.787 265.838C478.787 263.903 479.8 262.564 481.53 262.564ZM481.53 268.442C482.823 268.442 483.53 267.372 483.53 265.838C483.53 264.303 482.823 263.225 481.53 263.225C480.237 263.225 479.531 264.303 479.531 265.838C479.531 267.372 480.237 268.442 481.53 268.442ZM488.206 262.564C489.935 262.564 490.949 263.903 490.949 265.838C490.949 267.772 489.935 269.112 488.206 269.112C486.476 269.112 485.462 267.772 485.462 265.838C485.462 263.903 486.476 262.564 488.206 262.564ZM488.206 268.442C489.498 268.442 490.205 267.372 490.205 265.838C490.205 264.303 489.498 263.225 488.206 263.225C486.913 263.225 486.206 264.303 486.206 265.838C486.206 267.372 486.913 268.442 488.206 268.442Z" fill="white"/>
<path d="M553.273 265.178L552.836 266.563H553.999V267.186H552.641L552.083 269H551.348L551.915 267.186H550.083L549.525 269H548.791L549.358 267.186H548.372V266.563H549.553L549.981 265.178H548.884V264.554H550.186L550.771 262.667H551.506L550.911 264.554H552.743L553.329 262.667H554.064L553.469 264.554H554.51V265.178H553.273ZM552.539 265.178H550.716L550.279 266.563H552.111L552.539 265.178ZM557.777 264.759C559.135 264.759 560.12 265.661 560.12 266.926C560.12 268.209 559.135 269.112 557.767 269.112C556.4 269.112 555.424 268.2 555.424 266.945C555.424 266.405 555.619 265.959 555.935 265.466L557.898 262.676H558.763L557.284 264.806C557.442 264.778 557.6 264.759 557.777 264.759ZM557.767 268.507C558.716 268.507 559.395 267.865 559.395 266.963C559.395 266.07 558.716 265.41 557.767 265.41C557.284 265.41 556.865 265.559 556.577 265.838L556.54 265.884C556.261 266.247 556.14 266.573 556.14 266.973C556.14 267.865 556.828 268.507 557.767 268.507ZM563.427 268.386H565.074V269H560.916V268.386H562.702V263.504L561.019 264.108V263.42L563.018 262.676H563.427V268.386ZM570.627 266.991V267.624H569.632V269H568.925V267.624H565.54V267.168L567.455 262.676H568.199L566.405 266.991H568.925V264.964H569.632V266.991H570.627ZM571 262.676H575.333V263.122L572.45 269H571.623L574.413 263.355H571V262.676ZM580.745 263.355H577.137V265.68H580.355V266.359H577.137V269H576.402V262.676H580.745V263.355ZM586.286 263.355H582.677V265.68H585.895V266.359H582.677V269H581.942V262.676H586.286V263.355Z" fill="white"/>
<path d="M45.5695 122.218C47.7039 122.218 48.6821 123.274 48.6821 124.842C48.6821 126.609 47.5149 127.477 45.3582 127.477H42.568V130H40.7782V122.218H45.5695ZM45.2582 126.12C46.3032 126.12 46.859 125.698 46.859 124.842C46.859 123.964 46.3032 123.597 45.2582 123.597H42.568V126.12H45.2582ZM53.5795 123.93C53.9686 123.93 54.2576 123.964 54.4577 124.019V125.576H54.4022C54.1909 125.487 53.7907 125.387 53.2794 125.387C51.8787 125.387 51.3673 126.265 51.3673 127.187V130H49.6776V124.075H51.3673V125.164C51.6119 124.742 52.3122 123.93 53.5795 123.93ZM55.3445 130V124.075H57.0231V130H55.3445ZM56.1782 123.386C55.6669 123.386 55.3111 123.097 55.3111 122.596C55.3111 122.085 55.6669 121.796 56.1782 121.796C56.6896 121.796 57.0564 122.085 57.0564 122.596C57.0564 123.097 56.6896 123.386 56.1782 123.386ZM66.2108 123.919C67.7338 123.919 68.5231 124.742 68.5231 126.076V130H66.8334V126.498C66.8334 125.787 66.5221 125.175 65.5772 125.175C64.6323 125.175 64.2877 125.798 64.2877 126.498V130H62.5979V126.498C62.5979 125.787 62.2867 125.175 61.3417 125.175C60.3968 125.175 60.0411 125.809 60.0411 126.498V130H58.3625V124.075H60.0411V124.853C60.2523 124.486 60.7637 123.919 61.9754 123.919C63.0092 123.919 63.6985 124.297 64.032 124.953C64.2432 124.631 64.9102 123.919 66.2108 123.919ZM72.805 123.919C74.5059 123.919 75.9955 124.408 75.9955 126.154V130H74.3058V129.211C74.0501 129.6 73.1941 130.167 71.8712 130.167C70.4816 130.167 69.5256 129.589 69.5256 128.421C69.5256 127.176 70.1704 126.176 74.3058 126.432V126.154C74.3058 125.531 74.0279 125.075 72.805 125.075C71.7823 125.075 71.4599 125.375 71.371 125.787H69.7924C69.9814 124.475 71.182 123.919 72.805 123.919ZM74.3058 128.266V127.432C72.0602 127.31 71.2265 127.521 71.2265 128.366C71.2265 128.922 71.6378 129.144 72.3715 129.144C73.283 129.144 73.9945 128.788 74.3058 128.266ZM81.2301 123.93C81.6192 123.93 81.9082 123.964 82.1083 124.019V125.576H82.0527C81.8415 125.487 81.4413 125.387 80.9299 125.387C79.5292 125.387 79.0179 126.265 79.0179 127.187V130H77.3281V124.075H79.0179V125.164C79.2624 124.742 79.9628 123.93 81.2301 123.93ZM87.7641 124.075H89.5094L85.952 131.856H84.2845L85.2183 129.822L82.4392 124.075H84.2067L86.0076 128.11L87.7641 124.075ZM97.497 128.811C99.1089 128.811 99.7648 127.932 99.9982 126.921H101.855C101.488 129.233 99.5202 130.167 97.497 130.167C95.2514 130.167 93.0725 129.033 93.0725 126.109C93.0725 123.185 95.2514 122.063 97.497 122.063C99.5202 122.063 101.488 122.996 101.855 125.309H99.9982C99.7648 124.297 99.1089 123.419 97.497 123.419C95.6294 123.419 94.9068 124.608 94.9068 126.109C94.9068 127.621 95.6294 128.811 97.497 128.811ZM106.052 123.919C107.787 123.919 109.588 124.809 109.588 127.043C109.588 129.277 107.787 130.167 106.052 130.167C104.329 130.167 102.517 129.277 102.517 127.043C102.517 124.809 104.329 123.919 106.052 123.919ZM106.052 128.999C107.475 128.999 108.009 128.077 108.009 127.043C108.009 125.998 107.475 125.075 106.052 125.075C104.63 125.075 104.107 125.998 104.107 127.043C104.107 128.077 104.63 128.999 106.052 128.999ZM110.591 121.796H112.281V130H110.591V121.796ZM116.822 123.919C118.556 123.919 120.357 124.809 120.357 127.043C120.357 129.277 118.556 130.167 116.822 130.167C115.099 130.167 113.287 129.277 113.287 127.043C113.287 124.809 115.099 123.919 116.822 123.919ZM116.822 128.999C118.245 128.999 118.778 128.077 118.778 127.043C118.778 125.998 118.245 125.075 116.822 125.075C115.399 125.075 114.876 125.998 114.876 127.043C114.876 128.077 115.399 128.999 116.822 128.999ZM125.262 123.93C125.652 123.93 125.941 123.964 126.141 124.019V125.576H126.085C125.874 125.487 125.474 125.387 124.962 125.387C123.562 125.387 123.05 126.265 123.05 127.187V130H121.361V124.075H123.05V125.164C123.295 124.742 123.995 123.93 125.262 123.93ZM130.362 126.432C132.03 126.721 133.164 126.843 133.164 128.21C133.164 129.566 132.008 130.167 129.862 130.167C127.772 130.167 126.472 129.511 126.472 128.177H128.306C128.306 128.766 129.006 129.022 129.973 129.022C130.929 129.022 131.43 128.844 131.43 128.388C131.43 127.854 130.696 127.788 129.117 127.521C127.55 127.265 126.705 126.932 126.705 125.753C126.705 124.564 127.761 123.919 129.762 123.919C131.852 123.919 132.897 124.697 132.897 125.787H131.196C131.196 125.409 130.763 125.031 129.74 125.031C128.817 125.031 128.317 125.22 128.317 125.676C128.317 126.187 129.306 126.243 130.362 126.432Z" fill="black"/>
<path d="M70.28 381H75.3V395H72.08V383.94L67.38 395H64.32L59.62 383.94V395H56.4V381H61.42L65.84 391.76L70.28 381ZM90.1792 395L88.9992 392.26H81.3192L80.1192 395H76.6992L83.1792 381H87.1392L93.5992 395H90.1792ZM82.3992 389.8H87.9192L85.1592 383.44L82.3992 389.8ZM101.354 381C105.714 381 109.794 382.42 109.794 388C109.794 393.58 105.714 395 101.354 395H94.9938V381H101.354ZM101.034 392.52C104.374 392.52 106.494 391.62 106.494 388C106.494 384.4 104.374 383.48 101.034 383.48H98.2338V392.52H101.034ZM124.271 392.52V395H111.791V381H124.071V383.48H115.011V386.58H123.511V389.04H115.011V392.52H124.271ZM139.644 380.72C143.684 380.72 147.984 382.66 147.984 388C147.984 393.36 143.684 395.3 139.644 395.3C135.604 395.3 131.284 393.36 131.284 388C131.284 382.66 135.604 380.72 139.644 380.72ZM139.644 392.86C143.124 392.86 144.704 390.76 144.704 388C144.704 385.26 143.124 383.16 139.644 383.16C136.164 383.16 134.584 385.26 134.584 388C134.584 390.76 136.164 392.86 139.644 392.86ZM154.114 395.3C151.374 395.3 149.774 393.8 149.774 391.4V384.34H152.814V390.64C152.814 391.92 153.554 393.02 155.434 393.02C157.314 393.02 158.154 391.88 158.154 390.64V384.34H161.194V395H158.154V393.5C157.694 394.14 156.394 395.3 154.114 395.3ZM170.942 386.42H167.822V390.9C167.822 392.64 168.462 392.98 170.942 392.72V395C170.542 395.06 170.062 395.16 169.362 395.16C165.522 395.16 164.782 393.5 164.782 390.84V386.42H162.802V384.34H164.782V381.58H167.822V384.34H170.942V386.42ZM184.343 390.46H174.883C175.123 391.92 176.143 393.2 178.363 393.2C179.983 393.2 181.023 392.48 181.443 391.58H184.123C183.423 394.24 181.003 395.3 178.363 395.3C175.323 395.3 172.143 393.62 172.143 389.68C172.143 385.74 175.283 384.06 178.343 384.06C181.443 384.06 184.663 385.96 184.343 390.46ZM178.343 386.14C176.443 386.14 175.383 387.18 174.983 388.46H181.563C181.243 387.18 180.343 386.14 178.343 386.14ZM193.2 384.08C193.9 384.08 194.42 384.14 194.78 384.24V387.04H194.68C194.3 386.88 193.58 386.7 192.66 386.7C190.14 386.7 189.22 388.28 189.22 389.94V395H186.18V384.34H189.22V386.3C189.66 385.54 190.92 384.08 193.2 384.08ZM209.501 386.66C213.361 387.2 216.041 387.52 216.041 390.64C216.041 393.68 213.541 395.3 208.561 395.3C203.721 395.3 201.181 393.48 201.181 390.64H204.541C204.621 392.1 206.301 392.84 208.841 392.84C211.501 392.84 212.621 392.14 212.621 391.08C212.621 389.64 210.461 389.78 206.641 389.14C202.821 388.5 201.621 387.34 201.621 385.14C201.621 382.84 203.181 380.72 208.321 380.72C213.261 380.72 215.181 382.6 215.261 385.08H212.141C212.021 384.08 210.861 383.18 208.281 383.18C205.401 383.18 204.721 383.96 204.721 384.92C204.721 386.24 207.041 386.32 209.501 386.66ZM223.141 384.06C226.201 384.06 228.881 384.94 228.881 388.08V395H225.841V393.58C225.381 394.28 223.841 395.3 221.461 395.3C218.961 395.3 217.241 394.26 217.241 392.16C217.241 389.92 218.401 388.12 225.841 388.58V388.08C225.841 386.96 225.341 386.14 223.141 386.14C221.301 386.14 220.721 386.68 220.561 387.42H217.721C218.061 385.06 220.221 384.06 223.141 384.06ZM225.841 391.88V390.38C221.801 390.16 220.301 390.54 220.301 392.06C220.301 393.06 221.041 393.46 222.361 393.46C224.001 393.46 225.281 392.82 225.841 391.88ZM238.358 384.06C241.098 384.06 242.698 385.54 242.698 387.94V395H239.658V388.7C239.658 387.42 238.918 386.32 237.038 386.32C235.158 386.32 234.318 387.46 234.318 388.7V395H231.278V384.34H234.318V385.84C234.778 385.2 236.078 384.06 238.358 384.06ZM251.106 388.58C254.106 389.1 256.146 389.32 256.146 391.78C256.146 394.22 254.066 395.3 250.206 395.3C246.446 395.3 244.106 394.12 244.106 391.72H247.406C247.406 392.78 248.666 393.24 250.406 393.24C252.126 393.24 253.026 392.92 253.026 392.1C253.026 391.14 251.706 391.02 248.866 390.54C246.046 390.08 244.526 389.48 244.526 387.36C244.526 385.22 246.426 384.06 250.026 384.06C253.786 384.06 255.666 385.46 255.666 387.42H252.606C252.606 386.74 251.826 386.06 249.986 386.06C248.326 386.06 247.426 386.4 247.426 387.22C247.426 388.14 249.206 388.24 251.106 388.58Z" fill="black"/>
<path d="M353.36 393.78C355.84 393.78 357.64 392.34 358.2 390.14H359.84C359.2 393.2 356.7 395.26 353.36 395.26C349.44 395.26 346.28 392.22 346.28 388.2C346.28 384.18 349.44 381.16 353.36 381.16C356.7 381.16 359.2 383.2 359.84 386.26H358.2C357.64 384.04 355.84 382.64 353.36 382.64C350.28 382.64 347.88 385.02 347.88 388.2C347.88 391.38 350.28 393.78 353.36 393.78ZM369.962 385.72H371.482V395H369.962V394.04C369.142 394.8 368.022 395.24 366.702 395.24C364.042 395.24 361.922 393.08 361.922 390.36C361.922 387.66 364.042 385.48 366.702 385.48C368.022 385.48 369.142 385.92 369.962 386.68V385.72ZM366.902 393.84C368.122 393.84 369.202 393.38 369.962 392.26V388.46C369.202 387.34 368.122 386.88 366.902 386.88C364.942 386.88 363.442 388.44 363.442 390.36C363.442 392.28 364.942 393.84 366.902 393.84ZM386.025 385.48C388.385 385.48 389.925 386.86 389.925 389.52V395H388.405V389.52C388.405 387.68 387.445 386.88 385.925 386.88C384.805 386.88 383.765 387.34 383.025 388.46C383.085 388.76 383.105 389.08 383.105 389.44V395H381.585V389.44C381.585 387.62 380.605 386.88 379.185 386.88C378.025 386.88 377.005 387.36 376.285 388.44V395H374.765V385.72H376.285V386.72C377.045 385.94 378.005 385.48 379.345 385.48C380.765 385.48 381.865 386 382.505 387.02C383.405 386.04 384.545 385.48 386.025 385.48ZM397.611 385.5C400.271 385.5 402.391 387.66 402.391 390.36C402.391 393.08 400.271 395.22 397.611 395.22C396.291 395.22 395.171 394.78 394.351 394.02V399.64H392.831V385.72H394.351V386.7C395.171 385.94 396.291 385.5 397.611 385.5ZM397.411 393.88C399.371 393.88 400.871 392.28 400.871 390.36C400.871 388.44 399.371 386.84 397.411 386.84C396.191 386.84 395.111 387.34 394.351 388.46V392.26C395.111 393.38 396.191 393.88 397.411 393.88ZM411.096 393.5L411.316 394.9C410.556 395.16 409.916 395.24 409.356 395.24C407.076 395.24 405.976 393.98 405.976 391.56V387.02H403.556V385.72H405.976V382.3H407.496V385.72H410.996V387.02H407.496V391.56C407.496 393.16 408.176 393.82 409.496 393.82C410.016 393.82 410.596 393.68 411.096 393.5ZM417.545 385.48C420.365 385.48 422.465 387.56 422.465 390.36C422.465 393.16 420.365 395.24 417.545 395.24C414.705 395.24 412.605 393.16 412.605 390.36C412.605 387.56 414.705 385.48 417.545 385.48ZM417.545 393.84C419.485 393.84 420.925 392.36 420.925 390.36C420.925 388.36 419.485 386.88 417.545 386.88C415.585 386.88 414.125 388.36 414.125 390.36C414.125 392.36 415.585 393.84 417.545 393.84ZM429.898 385.48C432.258 385.48 433.878 387.06 433.878 389.68V395H432.358V389.76C432.358 387.88 431.258 386.88 429.618 386.88C428.518 386.88 427.378 387.44 426.578 388.48V395H425.058V385.72H426.578V386.76C427.438 385.94 428.578 385.48 429.898 385.48Z" fill="black"/>
<path d="M44.8469 216.364C46.9924 216.664 48.482 216.842 48.482 218.577C48.482 220.266 47.0924 221.167 44.3244 221.167C41.6342 221.167 40.2223 220.155 40.2223 218.577H42.0899C42.1344 219.388 43.0682 219.799 44.48 219.799C45.9585 219.799 46.5811 219.41 46.5811 218.821C46.5811 218.021 45.3805 218.099 43.2572 217.743C41.1339 217.387 40.4669 216.742 40.4669 215.519C40.4669 214.241 41.334 213.063 44.191 213.063C46.9368 213.063 48.004 214.108 48.0485 215.486H46.3143C46.2476 214.93 45.6028 214.43 44.1688 214.43C42.568 214.43 42.19 214.864 42.19 215.397C42.19 216.131 43.4795 216.175 44.8469 216.364ZM55.9298 218.477H50.6717C50.8051 219.288 51.372 219.999 52.606 219.999C53.5064 219.999 54.0845 219.599 54.3179 219.099H55.8076C55.4185 220.578 54.0734 221.167 52.606 221.167C50.9162 221.167 49.1487 220.233 49.1487 218.043C49.1487 215.853 50.894 214.919 52.5948 214.919C54.3179 214.919 56.1077 215.975 55.9298 218.477ZM52.5948 216.075C51.5388 216.075 50.9496 216.653 50.7272 217.365H54.3846C54.2068 216.653 53.7065 216.075 52.5948 216.075ZM60.175 219.999C61.2867 219.999 61.8314 219.433 62.0315 218.688H63.5434C63.2321 220.466 61.7313 221.167 60.175 221.167C58.4408 221.167 56.6177 220.333 56.6177 218.043C56.6177 215.753 58.4408 214.919 60.175 214.919C61.7313 214.919 63.2321 215.62 63.5434 217.398H62.0315C61.8314 216.642 61.2867 216.075 60.175 216.075C58.7521 216.075 58.2074 216.998 58.2074 218.043C58.2074 219.077 58.7521 219.999 60.175 219.999ZM67.6327 214.919C69.3669 214.919 71.1678 215.809 71.1678 218.043C71.1678 220.277 69.3669 221.167 67.6327 221.167C65.9096 221.167 64.0975 220.277 64.0975 218.043C64.0975 215.809 65.9096 214.919 67.6327 214.919ZM67.6327 219.999C69.0556 219.999 69.5892 219.077 69.5892 218.043C69.5892 216.998 69.0556 216.075 67.6327 216.075C66.2097 216.075 65.6872 216.998 65.6872 218.043C65.6872 219.077 66.2097 219.999 67.6327 219.999ZM76.1068 214.919C77.6297 214.919 78.5191 215.742 78.5191 217.076V221H76.8293V217.498C76.8293 216.787 76.418 216.175 75.3731 216.175C74.3281 216.175 73.8612 216.809 73.8612 217.498V221H72.1715V215.075H73.8612V215.909C74.1169 215.553 74.8395 214.919 76.1068 214.919ZM84.7823 213.218H86.472V221H84.7823V220.266C84.3487 220.822 83.6595 221.167 82.659 221.167C80.9359 221.167 79.5241 220.055 79.5241 218.043C79.5241 216.031 80.9359 214.919 82.659 214.919C83.6595 214.919 84.3487 215.264 84.7823 215.82V213.218ZM83.037 219.999C84.2487 219.999 84.9935 219.288 84.9935 218.043C84.9935 216.798 84.2487 216.075 83.037 216.075C81.8141 216.075 81.1138 216.798 81.1138 218.043C81.1138 219.288 81.8141 219.999 83.037 219.999ZM90.7502 214.919C92.451 214.919 93.9407 215.408 93.9407 217.154V221H92.2509V220.211C91.9953 220.6 91.1393 221.167 89.8164 221.167C88.4268 221.167 87.4708 220.589 87.4708 219.421C87.4708 218.176 88.1155 217.176 92.2509 217.432V217.154C92.2509 216.531 91.973 216.075 90.7502 216.075C89.7275 216.075 89.4051 216.375 89.3161 216.787H87.7376C87.9266 215.475 89.1272 214.919 90.7502 214.919ZM92.2509 219.266V218.432C90.0054 218.31 89.1716 218.521 89.1716 219.366C89.1716 219.922 89.5829 220.144 90.3166 220.144C91.2282 220.144 91.9397 219.788 92.2509 219.266ZM99.1752 214.93C99.5643 214.93 99.8534 214.964 100.053 215.019V216.576H99.9979C99.7867 216.487 99.3865 216.387 98.8751 216.387C97.4744 216.387 96.963 217.265 96.963 218.187V221H95.2733V215.075H96.963V216.164C97.2076 215.742 97.9079 214.93 99.1752 214.93ZM105.709 215.075H107.455L103.897 222.856H102.23L103.164 220.822L100.384 215.075H102.152L103.953 219.11L105.709 215.075ZM115.442 219.811C117.054 219.811 117.71 218.932 117.943 217.921H119.8C119.433 220.233 117.465 221.167 115.442 221.167C113.197 221.167 111.018 220.033 111.018 217.109C111.018 214.185 113.197 213.063 115.442 213.063C117.465 213.063 119.433 213.996 119.8 216.309H117.943C117.71 215.297 117.054 214.419 115.442 214.419C113.575 214.419 112.852 215.608 112.852 217.109C112.852 218.621 113.575 219.811 115.442 219.811ZM123.998 214.919C125.732 214.919 127.533 215.809 127.533 218.043C127.533 220.277 125.732 221.167 123.998 221.167C122.275 221.167 120.463 220.277 120.463 218.043C120.463 215.809 122.275 214.919 123.998 214.919ZM123.998 219.999C125.421 219.999 125.954 219.077 125.954 218.043C125.954 216.998 125.421 216.075 123.998 216.075C122.575 216.075 122.052 216.998 122.052 218.043C122.052 219.077 122.575 219.999 123.998 219.999ZM128.536 212.796H130.226V221H128.536V212.796ZM134.767 214.919C136.501 214.919 138.302 215.809 138.302 218.043C138.302 220.277 136.501 221.167 134.767 221.167C133.044 221.167 131.232 220.277 131.232 218.043C131.232 215.809 133.044 214.919 134.767 214.919ZM134.767 219.999C136.19 219.999 136.723 219.077 136.723 218.043C136.723 216.998 136.19 216.075 134.767 216.075C133.344 216.075 132.821 216.998 132.821 218.043C132.821 219.077 133.344 219.999 134.767 219.999ZM143.208 214.93C143.597 214.93 143.886 214.964 144.086 215.019V216.576H144.03C143.819 216.487 143.419 216.387 142.908 216.387C141.507 216.387 140.995 217.265 140.995 218.187V221H139.306V215.075H140.995V216.164C141.24 215.742 141.94 214.93 143.208 214.93ZM148.308 217.432C149.975 217.721 151.109 217.843 151.109 219.21C151.109 220.566 149.953 221.167 147.807 221.167C145.717 221.167 144.417 220.511 144.417 219.177H146.251C146.251 219.766 146.951 220.022 147.919 220.022C148.875 220.022 149.375 219.844 149.375 219.388C149.375 218.854 148.641 218.788 147.063 218.521C145.495 218.265 144.65 217.932 144.65 216.753C144.65 215.564 145.706 214.919 147.707 214.919C149.797 214.919 150.842 215.697 150.842 216.787H149.141C149.141 216.409 148.708 216.031 147.685 216.031C146.762 216.031 146.262 216.22 146.262 216.676C146.262 217.187 147.252 217.243 148.308 217.432Z" fill="black"/>
</svg>
