<svg width="37" height="38" viewBox="0 0 37 38" fill="none" xmlns="http://www.w3.org/2000/svg">
<path d="M18.5 17.5869L33.2769 7.8375C32.6828 7.37985 31.9614 7.13011 31.2188 7.125H5.78127C5.03865 7.13011 4.31723 7.37985 3.72314 7.8375L18.5 17.5869Z" fill="white"/>
<path d="M19.1244 19.9975L18.9278 20.0925H18.8353C18.7288 20.1414 18.6158 20.1734 18.5 20.1875C18.404 20.1999 18.3069 20.1999 18.2109 20.1875H18.1184L17.9219 20.0925L2.42812 9.80878C2.3541 10.0956 2.31526 10.3908 2.3125 10.6875V27.3125C2.3125 28.2574 2.67796 29.1635 3.32847 29.8316C3.97899 30.4997 4.86128 30.875 5.78125 30.875H31.2188C32.1387 30.875 33.021 30.4997 33.6715 29.8316C34.322 29.1635 34.6875 28.2574 34.6875 27.3125V10.6875C34.6847 10.3908 34.6459 10.0956 34.5719 9.80878L19.1244 19.9975Z" fill="white"/>
</svg>
