<svg width="23" height="35" viewBox="0 0 23 35" fill="none" xmlns="http://www.w3.org/2000/svg">
<path d="M11.064 21.24C9.656 21.24 8.368 21.008 7.2 20.544C6.032 20.064 5.024 19.4 4.176 18.552C3.344 17.688 2.696 16.672 2.232 15.504C1.768 14.32 1.536 13.024 1.536 11.616C1.536 10.208 1.768 8.92 2.232 7.752C2.696 6.584 3.344 5.576 4.176 4.728C5.024 3.864 6.032 3.2 7.2 2.736C8.368 2.256 9.656 2.016 11.064 2.016C12.472 2.016 13.752 2.256 14.904 2.736C16.072 3.2 17.08 3.864 17.928 4.728C18.776 5.576 19.432 6.584 19.896 7.752C20.36 8.92 20.592 10.208 20.592 11.616C20.592 13.024 20.36 14.32 19.896 15.504C19.432 16.672 18.776 17.688 17.928 18.552C17.08 19.4 16.072 20.064 14.904 20.544C13.752 21.008 12.472 21.24 11.064 21.24ZM11.064 18.984C12.104 18.984 13.056 18.8 13.92 18.432C14.8 18.048 15.56 17.528 16.2 16.872C16.84 16.2 17.328 15.416 17.664 14.52C18.016 13.624 18.192 12.656 18.192 11.616C18.192 10.576 18.016 9.608 17.664 8.712C17.328 7.816 16.84 7.04 16.2 6.384C15.56 5.712 14.8 5.192 13.92 4.824C13.056 4.456 12.104 4.272 11.064 4.272C10.024 4.272 9.064 4.456 8.184 4.824C7.32 5.192 6.568 5.712 5.928 6.384C5.304 7.04 4.816 7.816 4.464 8.712C4.112 9.608 3.936 10.576 3.936 11.616C3.936 12.656 4.112 13.624 4.464 14.52C4.816 15.416 5.304 16.2 5.928 16.872C6.568 17.528 7.32 18.048 8.184 18.432C9.064 18.8 10.024 18.984 11.064 18.984Z" fill="white"/>
<path d="M10.84 29.24C9.72 29.24 8.72 29 7.84 28.52C6.976 28.024 6.296 27.344 5.8 26.48C5.32 25.6 5.08 24.6 5.08 23.48C5.08 23.112 5.2 22.816 5.44 22.592C5.68 22.352 5.976 22.232 6.328 22.232C6.696 22.232 6.992 22.352 7.216 22.592C7.456 22.816 7.576 23.112 7.576 23.48C7.576 24.168 7.712 24.776 7.984 25.304C8.272 25.832 8.656 26.248 9.136 26.552C9.632 26.84 10.2 26.984 10.84 26.984C11.48 26.984 12.048 26.84 12.544 26.552C13.04 26.248 13.424 25.832 13.696 25.304C13.984 24.776 14.128 24.168 14.128 23.48V11.504C14.128 11.136 14.24 10.84 14.464 10.616C14.704 10.376 15 10.256 15.352 10.256C15.72 10.256 16.024 10.376 16.264 10.616C16.504 10.84 16.624 11.136 16.624 11.504V23.48C16.624 24.6 16.376 25.6 15.88 26.48C15.384 27.344 14.704 28.024 13.84 28.52C12.976 29 11.976 29.24 10.84 29.24Z" fill="white"/>
</svg>
