<svg width="35" height="35" viewBox="0 0 35 35" fill="none" xmlns="http://www.w3.org/2000/svg">
<path d="M8.74989 16.0415C8.47889 16.0414 8.21321 16.1168 7.98266 16.2592C7.75211 16.4017 7.56582 16.6055 7.44468 16.848L3.06968 25.598C2.94135 25.8546 2.72114 26.9105 1.50197 31.723C1.44706 31.9384 1.44213 32.1635 1.48755 32.3811C1.53297 32.5987 1.62754 32.8031 1.76403 32.9786C1.90052 33.154 2.07533 33.296 2.27508 33.3935C2.47483 33.4911 2.69425 33.5417 2.91656 33.5415H32.0832C32.3047 33.5414 32.5233 33.4909 32.7224 33.3938C32.9215 33.2966 33.0958 33.1554 33.2322 32.9808C33.3685 32.8062 33.4633 32.6029 33.5093 32.3862C33.5554 32.1695 33.5514 31.9452 33.4978 31.7303C32.1605 26.438 32.0745 25.8882 31.9301 25.6053L27.5551 16.8553C27.435 16.6115 27.2491 16.4061 27.0185 16.2623C26.7879 16.1185 26.5217 16.0421 26.2499 16.0415H23.3332C22.9465 16.0415 22.5755 16.1951 22.302 16.4686C22.0285 16.7421 21.8749 17.1131 21.8749 17.4998C21.8749 17.8866 22.0285 18.2575 22.302 18.531C22.5755 18.8045 22.9465 18.9582 23.3332 18.9582H25.3486L28.2653 24.7915H6.73447L9.65114 18.9582H11.6666C12.0533 18.9582 12.4243 18.8045 12.6978 18.531C12.9712 18.2575 13.1249 17.8866 13.1249 17.4998C13.1249 17.1131 12.9712 16.7421 12.6978 16.4686C12.4243 16.1951 12.0533 16.0415 11.6666 16.0415H8.74989ZM29.4859 27.7082L30.2151 30.6248H4.78468L5.51385 27.7082H29.4859Z" fill="white"/>
<path d="M17.5001 21.875C17.8869 21.875 18.2578 21.7214 18.5313 21.4479C18.8048 21.1744 18.9584 20.8035 18.9584 20.4167V12.918C20.3331 12.563 21.5312 11.7189 22.3281 10.5438C23.1249 9.36869 23.4658 7.94331 23.2869 6.53483C23.108 5.12635 22.4216 3.83147 21.3563 2.8929C20.2909 1.95434 18.9199 1.43652 17.5001 1.43652C16.0803 1.43652 14.7092 1.95434 13.6439 2.8929C12.5786 3.83147 11.8922 5.12635 11.7133 6.53483C11.5344 7.94331 11.8753 9.36869 12.6721 10.5438C13.469 11.7189 14.6671 12.563 16.0418 12.918V20.4167C16.0418 20.8035 16.1954 21.1744 16.4689 21.4479C16.7424 21.7214 17.1133 21.875 17.5001 21.875ZM14.5834 7.29171C14.5834 6.71484 14.7545 6.15094 15.075 5.67129C15.3955 5.19165 15.851 4.81781 16.3839 4.59706C16.9169 4.3763 17.5033 4.31854 18.0691 4.43108C18.6349 4.54362 19.1546 4.82141 19.5625 5.22931C19.9704 5.63722 20.2482 6.15692 20.3607 6.72269C20.4733 7.28847 20.4155 7.87492 20.1947 8.40787C19.974 8.94082 19.6002 9.39634 19.1205 9.71683C18.6409 10.0373 18.077 10.2084 17.5001 10.2084C16.7265 10.2084 15.9847 9.90108 15.4377 9.3541C14.8907 8.80712 14.5834 8.06526 14.5834 7.29171Z" fill="white"/>
</svg>
