<svg width="37" height="37" viewBox="0 0 37 37" fill="none" xmlns="http://www.w3.org/2000/svg">
<path d="M19.6562 12.7188H20.9281C21.0778 13.4409 21.3643 14.1277 21.7722 14.7422L20.8703 15.6441C20.7493 15.7477 20.651 15.8753 20.5816 16.0187C20.5122 16.1622 20.4732 16.3184 20.467 16.4777C20.4609 16.6369 20.4877 16.7957 20.5458 16.9441C20.604 17.0924 20.6921 17.2272 20.8048 17.3399C20.9175 17.4526 21.0522 17.5407 21.2006 17.5989C21.349 17.657 21.5078 17.6838 21.667 17.6777C21.8263 17.6715 21.9825 17.6325 22.126 17.5631C22.2694 17.4937 22.397 17.3954 22.5006 17.2744L23.4025 16.3725C24.0196 16.7858 24.7105 17.0763 25.4375 17.2281V18.5C25.4375 18.8067 25.5593 19.1008 25.7762 19.3176C25.993 19.5344 26.2871 19.6562 26.5938 19.6562C26.9004 19.6562 27.1945 19.5344 27.4113 19.3176C27.6282 19.1008 27.75 18.8067 27.75 18.5V17.2281C28.4721 17.0784 29.159 16.7919 29.7734 16.3841L30.6753 17.2859C30.8965 17.4754 31.181 17.5743 31.472 17.5631C31.763 17.5519 32.0391 17.4312 32.245 17.2253C32.4509 17.0194 32.5716 16.7433 32.5828 16.4523C32.594 16.1613 32.4951 15.8768 32.3056 15.6556L31.4037 14.7537C31.817 14.1367 32.1075 13.4457 32.2594 12.7188H33.5312C33.8379 12.7188 34.132 12.5969 34.3488 12.3801C34.5657 12.1633 34.6875 11.8692 34.6875 11.5625C34.6875 11.2558 34.5657 10.9617 34.3488 10.7449C34.132 10.5281 33.8379 10.4062 33.5312 10.4062H32.2594C32.1097 9.68411 31.8232 8.99728 31.4153 8.38281L32.3172 7.48094C32.5066 7.25974 32.6056 6.97522 32.5944 6.68422C32.5831 6.39322 32.4625 6.11718 32.2566 5.91126C32.0506 5.70533 31.7746 5.5847 31.4836 5.57346C31.1926 5.56222 30.9081 5.6612 30.6869 5.85063L29.785 6.7525C29.1679 6.33923 28.477 6.04872 27.75 5.89687V4.625C27.75 4.31834 27.6282 4.02425 27.4113 3.80741C27.1945 3.59057 26.9004 3.46875 26.5938 3.46875C26.2871 3.46875 25.993 3.59057 25.7762 3.80741C25.5593 4.02425 25.4375 4.31834 25.4375 4.625V5.89687C24.7154 6.04659 24.0285 6.3331 23.4141 6.74094L22.5122 5.83906C22.291 5.64964 22.0065 5.55066 21.7155 5.5619C21.4245 5.57314 21.1484 5.69377 20.9425 5.89969C20.7366 6.10561 20.6159 6.38166 20.6047 6.67266C20.5935 6.96366 20.6924 7.24818 20.8819 7.46938L21.7838 8.37125C21.3705 8.98833 21.08 9.67926 20.9281 10.4062H19.6562C19.3496 10.4062 19.0555 10.5281 18.8387 10.7449C18.6218 10.9617 18.5 11.2558 18.5 11.5625C18.5 11.8692 18.6218 12.1633 18.8387 12.3801C19.0555 12.5969 19.3496 12.7188 19.6562 12.7188ZM26.5938 8.09375C27.2798 8.09375 27.9505 8.29719 28.5209 8.67834C29.0913 9.05949 29.5359 9.60124 29.7985 10.2351C30.061 10.8689 30.1297 11.5663 29.9958 12.2392C29.862 12.9121 29.5316 13.5302 29.0465 14.0153C28.5614 14.5004 27.9433 14.8308 27.2705 14.9646C26.5976 15.0984 25.9001 15.0297 25.2663 14.7672C24.6325 14.5047 24.0907 14.0601 23.7096 13.4896C23.3284 12.9192 23.125 12.2486 23.125 11.5625C23.125 10.6425 23.4905 9.76024 24.141 9.10972C24.7915 8.45921 25.6738 8.09375 26.5938 8.09375ZM31.2188 26.5938H25.8884L25.715 27.1025L25.3797 28.12L25.1137 28.9062H24.2812C24.1263 28.906 23.9729 28.8745 23.8303 28.8137L22.8475 28.3975L15.7366 25.345C15.4661 25.2178 15.2554 24.9907 15.1487 24.7115C15.042 24.4323 15.0475 24.1226 15.1642 23.8475C15.2808 23.5723 15.4995 23.3529 15.7744 23.2355C16.0493 23.118 16.3589 23.1116 16.6384 23.2175L23.5759 26.1891L24.5241 26.5938H25.8884L26.5938 24.6512C26.6113 24.5285 26.6113 24.404 26.5938 24.2812C26.6058 24.193 26.6058 24.1035 26.5938 24.0153C26.5583 23.8344 26.4744 23.6666 26.3509 23.5297L26.1659 23.3563L26.0156 23.2522L18.1994 17.6791L18.0491 17.5634L17.8872 17.4709C17.838 17.4571 17.786 17.4571 17.7369 17.4709C17.6163 17.4012 17.4823 17.3578 17.3438 17.3438H3.46875C3.16209 17.3438 2.868 17.4656 2.65116 17.6824C2.43432 17.8992 2.3125 18.1933 2.3125 18.5V27.75C2.3125 28.0567 2.43432 28.3508 2.65116 28.5676C2.868 28.7844 3.16209 28.9062 3.46875 28.9062H11.285L20.2922 33.4041C20.4533 33.4866 20.6315 33.5302 20.8125 33.5312H31.2188C32.1387 33.5312 33.021 33.1658 33.6715 32.5153C34.322 31.8648 34.6875 30.9825 34.6875 30.0625C34.6875 29.1425 34.322 28.2602 33.6715 27.6097C33.021 26.9592 32.1387 26.5938 31.2188 26.5938Z" fill="white"/>
</svg>
