<svg width="45" height="45" viewBox="0 0 45 45" fill="none" xmlns="http://www.w3.org/2000/svg">
<path d="M38.3812 13.8186C38.3812 13.8186 38.3812 13.8186 38.3812 13.6686L38.2687 13.3873C38.2295 13.3277 38.1856 13.2712 38.1374 13.2186C38.0872 13.1392 38.0308 13.064 37.9687 12.9936L37.7999 12.8623L37.4999 12.7123L23.4374 4.0311C23.1394 3.84485 22.7951 3.74609 22.4437 3.74609C22.0922 3.74609 21.7479 3.84485 21.4499 4.0311L7.49991 12.7123L7.33116 12.8623L7.16241 12.9936C7.10025 13.064 7.04382 13.1392 6.99366 13.2186C6.94545 13.2712 6.90156 13.3277 6.86241 13.3873L6.74991 13.6686C6.74991 13.6686 6.74991 13.6686 6.74991 13.8186C6.73148 13.9806 6.73148 14.1441 6.74991 14.3061V30.6936C6.74927 31.0122 6.82985 31.3258 6.98404 31.6047C7.13823 31.8835 7.36094 32.1185 7.63116 32.2873L21.6937 40.9686C21.7802 41.0221 21.8754 41.0601 21.9749 41.0811C21.9749 41.0811 22.0687 41.0811 22.1249 41.0811C22.4421 41.1817 22.7827 41.1817 23.0999 41.0811C23.0999 41.0811 23.1937 41.0811 23.2499 41.0811C23.3494 41.0601 23.4446 41.0221 23.5312 40.9686L37.4999 32.2873C37.7701 32.1185 37.9928 31.8835 38.147 31.6047C38.3012 31.3258 38.3818 31.0122 38.3812 30.6936V14.3061C38.3996 14.1441 38.3996 13.9806 38.3812 13.8186ZM20.6249 36.0186L10.3124 29.6436V17.6811L20.6249 24.0373V36.0186ZM22.4999 20.7936L11.9999 14.3061L22.4999 7.83735L32.9999 14.3061L22.4999 20.7936ZM34.6874 29.6436L24.3749 36.0186V24.0373L34.6874 17.6811V29.6436Z" fill="white"/>
</svg>
