<svg width="33" height="35" viewBox="0 0 33 35" fill="none" xmlns="http://www.w3.org/2000/svg">
<path d="M32.6429 30.9716L22.9324 13.9753C22.6997 13.568 22.3653 13.2298 21.9628 12.9948C21.5603 12.7597 21.1039 12.636 20.6394 12.636C20.1748 12.636 19.7184 12.7597 19.3159 12.9948C18.9135 13.2298 18.5791 13.568 18.3463 13.9753H18.3471L8.63584 30.9716C8.4025 31.3795 8.27936 31.8424 8.27881 32.3138C8.27826 32.7852 8.40034 33.2484 8.63273 33.6568C8.86513 34.0653 9.19965 34.4044 9.6026 34.6402C10.0056 34.876 10.4627 35 10.9281 34.9999H30.3507C30.816 35 31.2732 34.876 31.6761 34.6402C32.0791 34.4044 32.4136 34.0653 32.646 33.6568C32.8784 33.2484 33.0005 32.7852 32.9999 32.3138C32.9994 31.8424 32.8762 31.3795 32.6429 30.9716Z" fill="#D5D5D5"/>
<path d="M14.1845 2.39489C12.5838 2.39489 11.0539 2.71297 9.59485 3.34911C8.13577 3.98525 6.87985 4.83657 5.82709 5.90304C4.77434 6.96952 3.93398 8.24181 3.30602 9.7199C2.67806 11.198 2.36408 12.7478 2.36408 14.3694C2.36408 15.9909 2.67806 17.5407 3.30602 19.0188C3.93398 20.4969 4.77434 21.7692 5.82709 22.8357C6.87985 23.9022 8.13577 24.7535 9.59485 25.3896C11.0539 26.0258 12.5838 26.3438 14.1845 26.3438C15.7852 26.3438 17.3151 26.0258 18.7741 25.3896C20.2332 24.7535 21.4891 23.9022 22.5419 22.8357C23.5946 21.7692 24.435 20.4969 25.063 19.0188C25.6909 17.5407 26.0049 15.9909 26.0049 14.3694C26.0049 12.7478 25.6909 11.198 25.063 9.7199C24.435 8.24181 23.5946 6.96952 22.5419 5.90304C21.4891 4.83657 20.2332 3.98525 18.7741 3.34911C17.3151 2.71297 15.7852 2.39489 14.1845 2.39489ZM28.369 14.3694C28.369 16.9763 27.7349 19.3806 26.4666 21.5821C25.1984 23.7837 23.4777 25.5268 21.3044 26.8116C19.1312 28.0964 16.7579 28.7387 14.1845 28.7387C11.6111 28.7387 9.23777 28.0964 7.06454 26.8116C4.89131 25.5268 3.17058 23.7837 1.90235 21.5821C0.634116 19.3806 0 16.9763 0 14.3694C0 11.7624 0.634116 9.35818 1.90235 7.15662C3.17058 4.95506 4.89131 3.2119 7.06454 1.92714C9.23777 0.642381 11.6111 0 14.1845 0C16.7579 0 19.1312 0.642381 21.3044 1.92714C23.4777 3.2119 25.1984 4.95506 26.4666 7.15662C27.7349 9.35818 28.369 11.7624 28.369 14.3694Z" fill="white"/>
</svg>
