<svg width="41" height="41" viewBox="0 0 41 41" fill="none" xmlns="http://www.w3.org/2000/svg">
<g clip-path="url(#clip0_144_1929)">
<path fill-rule="evenodd" clip-rule="evenodd" d="M16.7293 2.59058C21.8761 2.61492 26.9358 5.63226 29.3497 10.3396C31.6943 14.9162 31.3317 20.7574 28.2811 25.047C25.1638 29.4289 19.4456 31.8108 14.0374 30.7909C8.31025 29.7121 3.462 24.8331 2.60484 18.8458C1.85787 13.6375 4.23331 8.08201 8.69719 5.04673C10.9996 3.47976 13.7684 2.62261 16.5461 2.59186C16.6076 2.59058 16.6678 2.59058 16.7293 2.59058ZM16.8831 6.43433C19.2444 6.45611 21.5776 7.30685 23.3816 8.81488C26.9409 11.7887 28.1389 17.2775 25.8416 21.5364C25.4828 22.2001 24.6577 22.6114 23.9799 22.227C23.3329 21.8606 23.2214 21.0085 23.6161 20.2667C24.8653 17.8925 24.7525 14.8803 23.3419 12.6189C21.4226 9.54776 17.1778 8.10636 13.6992 9.65539C10.5332 11.0635 8.53703 14.7868 9.30706 18.323C9.90797 21.0803 12.1514 23.4173 14.8972 24.1245C16.9177 24.6447 19.1407 24.3014 20.9216 23.179C20.9216 23.179 21.0997 23.0713 21.2714 23.0252C22.2413 22.7638 23.379 24.0131 22.6359 25.0214C22.4271 25.3059 22.0606 25.4942 21.7211 25.68C18.1938 27.607 13.5352 27.2252 10.3462 24.6255C7.7119 22.4781 6.26281 18.9585 6.62925 15.5709C7.03284 11.8348 9.66325 8.41129 13.2354 7.07751C14.3987 6.64317 15.6364 6.43048 16.8831 6.43433ZM16.6525 20.5076C17.3623 20.5076 17.9376 21.0803 17.9376 21.785C17.9376 22.4897 17.3623 23.0624 16.6525 23.0624C15.9439 23.0624 15.3674 22.4897 15.3674 21.785C15.3674 21.0803 15.9439 20.5076 16.6525 20.5076ZM16.6819 10.2614C18.4091 10.2781 20.0401 11.5785 20.4129 13.2839C20.8012 15.0699 19.7492 17.0584 17.9786 17.7132L17.9388 17.7273V17.9464C17.9196 18.7869 16.992 19.4557 16.1874 19.1379C15.7146 18.9508 15.3879 18.4717 15.3763 17.9464V16.6651C15.3815 16.4601 15.3994 16.3986 15.4353 16.2807C15.6082 15.7311 16.1758 15.4313 16.7742 15.38C17.7197 15.2929 18.3142 13.9501 17.5634 13.198C16.8716 12.5062 15.3879 12.9738 15.3763 14.0949C15.3763 14.0949 15.2854 14.9431 14.6665 15.2506C14.1425 15.5107 13.4442 15.3531 13.0842 14.8893C12.7024 14.3973 12.7792 13.6619 12.974 13.0071C13.4327 11.4658 14.9241 10.2986 16.5833 10.2614C16.6166 10.2614 16.6499 10.2614 16.6819 10.2614Z" fill="white"/>
<path d="M34.5489 28.0682C35.4522 28.9715 36.3555 29.8748 37.2562 30.7806C38.4977 32.0452 38.8834 34.0632 38.1889 35.6891C37.4368 37.4508 35.4624 38.6001 33.5546 38.3823C32.5668 38.2695 31.6276 37.8185 30.914 37.119L30.8948 37.0997L28.2067 34.4104L34.5489 28.0682ZM26.3937 32.5987L25.5238 31.7288C25.5238 31.7288 25.0843 31.2393 25.1586 30.6576C25.1996 30.345 25.3777 30.0721 25.625 29.8786L29.8928 25.6556C30.0107 25.4365 30.1875 25.2508 30.4181 25.1367C30.5309 25.0804 30.6565 25.0406 30.7935 25.0227C30.9345 25.0048 30.9678 25.0137 31.0126 25.0137C31.3317 25.0368 31.6302 25.1675 31.8634 25.3878C32.1542 25.6787 32.4451 25.9683 32.7346 26.2578L26.3937 32.5987Z" fill="white"/>
</g>
<defs>
<clipPath id="clip0_144_1929">
<rect width="41" height="41" fill="white"/>
</clipPath>
</defs>
</svg>
