<svg width="192" height="33" viewBox="0 0 192 33" fill="none" xmlns="http://www.w3.org/2000/svg">
<path d="M18.736 1.664V24H14.256V14.496H4.688V24H0.208V1.664H4.688V10.848H14.256V1.664H18.736ZM30.6975 24.288C28.9908 24.288 27.4548 23.9147 26.0895 23.168C24.7242 22.4 23.6468 21.3227 22.8575 19.936C22.0895 18.5493 21.7055 16.9493 21.7055 15.136C21.7055 13.3227 22.1002 11.7227 22.8895 10.336C23.7002 8.94933 24.7988 7.88267 26.1855 7.136C27.5722 6.368 29.1188 5.984 30.8255 5.984C32.5322 5.984 34.0788 6.368 35.4655 7.136C36.8522 7.88267 37.9402 8.94933 38.7295 10.336C39.5402 11.7227 39.9455 13.3227 39.9455 15.136C39.9455 16.9493 39.5295 18.5493 38.6975 19.936C37.8868 21.3227 36.7775 22.4 35.3695 23.168C33.9828 23.9147 32.4255 24.288 30.6975 24.288ZM30.6975 20.384C31.5082 20.384 32.2655 20.192 32.9695 19.808C33.6948 19.4027 34.2708 18.8053 34.6975 18.016C35.1242 17.2267 35.3375 16.2667 35.3375 15.136C35.3375 13.4507 34.8895 12.16 33.9935 11.264C33.1188 10.3467 32.0415 9.888 30.7615 9.888C29.4815 9.888 28.4042 10.3467 27.5295 11.264C26.6762 12.16 26.2495 13.4507 26.2495 15.136C26.2495 16.8213 26.6655 18.1227 27.4975 19.04C28.3508 19.936 29.4175 20.384 30.6975 20.384ZM47.3918 0.32V24H42.9118V0.32H47.3918ZM50.346 15.072C50.346 13.28 50.698 11.6907 51.402 10.304C52.1273 8.91733 53.098 7.85067 54.314 7.104C55.5513 6.35733 56.9273 5.984 58.442 5.984C59.7647 5.984 60.9167 6.25067 61.898 6.784C62.9007 7.31733 63.7007 7.98933 64.298 8.8V6.272H68.81V24H64.298V21.408C63.722 22.24 62.922 22.9333 61.898 23.488C60.8953 24.0213 59.7327 24.288 58.41 24.288C56.9167 24.288 55.5513 23.904 54.314 23.136C53.098 22.368 52.1273 21.2907 51.402 19.904C50.698 18.496 50.346 16.8853 50.346 15.072ZM64.298 15.136C64.298 14.048 64.0847 13.12 63.658 12.352C63.2313 11.5627 62.6553 10.9653 61.93 10.56C61.2047 10.1333 60.426 9.92 59.594 9.92C58.762 9.92 57.994 10.1227 57.29 10.528C56.586 10.9333 56.01 11.5307 55.562 12.32C55.1353 13.088 54.922 14.0053 54.922 15.072C54.922 16.1387 55.1353 17.0773 55.562 17.888C56.01 18.6773 56.586 19.2853 57.29 19.712C58.0153 20.1387 58.7833 20.352 59.594 20.352C60.426 20.352 61.2047 20.1493 61.93 19.744C62.6553 19.3173 63.2313 18.72 63.658 17.952C64.0847 17.1627 64.298 16.224 64.298 15.136ZM92.8425 12.544C94.1012 12.7787 95.1358 13.408 95.9465 14.432C96.7572 15.456 97.1625 16.6293 97.1625 17.952C97.1625 19.1467 96.8638 20.2027 96.2665 21.12C95.6905 22.016 94.8478 22.72 93.7385 23.232C92.6292 23.744 91.3172 24 89.8025 24H80.1705V1.664H89.3865C90.9012 1.664 92.2025 1.90933 93.2905 2.4C94.3998 2.89067 95.2318 3.57333 95.7865 4.448C96.3625 5.32267 96.6505 6.31467 96.6505 7.424C96.6505 8.72533 96.2985 9.81333 95.5945 10.688C94.9118 11.5627 93.9945 12.1813 92.8425 12.544ZM84.6505 10.88H88.7465C89.8132 10.88 90.6345 10.6453 91.2105 10.176C91.7865 9.68533 92.0745 8.992 92.0745 8.096C92.0745 7.2 91.7865 6.50667 91.2105 6.016C90.6345 5.52533 89.8132 5.28 88.7465 5.28H84.6505V10.88ZM89.1625 20.352C90.2505 20.352 91.0932 20.096 91.6905 19.584C92.3092 19.072 92.6185 18.3467 92.6185 17.408C92.6185 16.448 92.2985 15.7013 91.6585 15.168C91.0185 14.6133 90.1545 14.336 89.0665 14.336H84.6505V20.352H89.1625ZM116.893 14.752C116.893 15.392 116.85 15.968 116.765 16.48H103.805C103.912 17.76 104.36 18.7627 105.149 19.488C105.938 20.2133 106.909 20.576 108.061 20.576C109.725 20.576 110.909 19.8613 111.613 18.432H116.445C115.933 20.1387 114.952 21.5467 113.501 22.656C112.05 23.744 110.269 24.288 108.157 24.288C106.45 24.288 104.914 23.9147 103.549 23.168C102.205 22.4 101.149 21.3227 100.381 19.936C99.6343 18.5493 99.261 16.9493 99.261 15.136C99.261 13.3013 99.6343 11.6907 100.381 10.304C101.128 8.91733 102.173 7.85067 103.517 7.104C104.861 6.35733 106.408 5.984 108.157 5.984C109.842 5.984 111.346 6.34667 112.669 7.072C114.013 7.79733 115.048 8.832 115.773 10.176C116.52 11.4987 116.893 13.024 116.893 14.752ZM112.253 13.472C112.232 12.32 111.816 11.4027 111.005 10.72C110.194 10.016 109.202 9.664 108.029 9.664C106.92 9.664 105.981 10.0053 105.213 10.688C104.466 11.3493 104.008 12.2773 103.837 13.472H112.253ZM118.691 15.072C118.691 13.28 119.043 11.6907 119.747 10.304C120.472 8.91733 121.443 7.85067 122.659 7.104C123.896 6.35733 125.272 5.984 126.787 5.984C128.11 5.984 129.262 6.25067 130.243 6.784C131.246 7.31733 132.046 7.98933 132.643 8.8V6.272H137.155V24H132.643V21.408C132.067 22.24 131.267 22.9333 130.243 23.488C129.24 24.0213 128.078 24.288 126.755 24.288C125.262 24.288 123.896 23.904 122.659 23.136C121.443 22.368 120.472 21.2907 119.747 19.904C119.043 18.496 118.691 16.8853 118.691 15.072ZM132.643 15.136C132.643 14.048 132.43 13.12 132.003 12.352C131.576 11.5627 131 10.9653 130.275 10.56C129.55 10.1333 128.771 9.92 127.939 9.92C127.107 9.92 126.339 10.1227 125.635 10.528C124.931 10.9333 124.355 11.5307 123.907 12.32C123.48 13.088 123.267 14.0053 123.267 15.072C123.267 16.1387 123.48 17.0773 123.907 17.888C124.355 18.6773 124.931 19.2853 125.635 19.712C126.36 20.1387 127.128 20.352 127.939 20.352C128.771 20.352 129.55 20.1493 130.275 19.744C131 19.3173 131.576 18.72 132.003 17.952C132.43 17.1627 132.643 16.224 132.643 15.136ZM157.947 6.272V24H153.435V21.76C152.859 22.528 152.101 23.136 151.163 23.584C150.245 24.0107 149.243 24.224 148.155 24.224C146.768 24.224 145.541 23.936 144.475 23.36C143.408 22.7627 142.565 21.8987 141.947 20.768C141.349 19.616 141.051 18.2507 141.051 16.672V6.272H145.531V16.032C145.531 17.44 145.883 18.528 146.587 19.296C147.291 20.0427 148.251 20.416 149.467 20.416C150.704 20.416 151.675 20.0427 152.379 19.296C153.083 18.528 153.435 17.44 153.435 16.032V6.272H157.947ZM167.263 9.952V18.528C167.263 19.1253 167.401 19.5627 167.679 19.84C167.977 20.096 168.468 20.224 169.151 20.224H171.231V24H168.415C164.639 24 162.751 22.1653 162.751 18.496V9.952H160.639V6.272H162.751V1.888H167.263V6.272H171.231V9.952H167.263ZM191.093 6.272L180.117 32.384H175.349L179.189 23.552L172.085 6.272H177.109L181.685 18.656L186.325 6.272H191.093Z" fill="#A6908F"/>
</svg>
