<svg width="260" height="24" viewBox="0 0 260 24" fill="none" xmlns="http://www.w3.org/2000/svg">
<path d="M135.819 10.8583H124.922C122.612 10.8583 120.738 9.00545 120.738 6.72174C120.738 4.43819 122.612 2.58533 124.922 2.58533H141.18V0.0431371H124.922C121.174 0.0431371 118.166 3.05917 118.166 6.72158C118.166 10.384 121.217 13.4002 124.922 13.4002L135.819 13.4004C138.042 13.4004 139.873 15.2101 139.873 17.4074C139.873 19.605 138.042 21.4145 135.819 21.4145H118.471V23.9566L135.819 23.9567C139.48 23.9567 142.444 21.0268 142.444 17.4072C142.444 13.7879 139.48 10.858 135.819 10.858V10.8583ZM219.638 0.000163641H206.518V23.9569H219.638C226.307 23.9569 231.755 18.5709 231.755 11.9785C231.755 5.38587 226.307 7.62939e-06 219.638 7.62939e-06V0.000163641ZM219.638 21.458H209.046V2.49923H219.638C224.912 2.49923 229.227 6.76489 229.227 11.9785C229.227 17.192 224.912 21.458 219.638 21.458ZM102.169 0.000163641H89.0494V23.9569H102.169C108.838 23.9569 114.287 18.5709 114.287 11.9785C114.287 5.38587 108.838 7.62939e-06 102.169 7.62939e-06V0.000163641ZM102.169 21.458H91.5773V2.49923H102.169C107.443 2.49923 111.758 6.76489 111.758 11.9785C111.758 17.192 107.443 21.458 102.169 21.458ZM189.344 0.000163641C182.457 0.000163641 176.835 5.55856 176.835 12.3664V24H179.45V12.3664C179.45 6.98039 183.896 2.5855 189.344 2.5855C194.793 2.5855 199.239 6.98055 199.239 12.3664V24H201.854V12.3664C201.854 5.55856 196.231 0.000163641 189.344 0.000163641ZM159.661 0.000163641C152.774 0.000163641 147.152 5.55856 147.152 12.3664V24H149.767V13.2711H169.555V24H172.171V12.3664C172.171 5.55856 166.548 0.000163641 159.661 0.000163641H159.661ZM159.661 2.5855C164.543 2.5855 168.597 6.07554 169.381 10.6859L149.941 10.6858C150.726 6.07536 154.779 2.5855 159.661 2.5855H159.661ZM42.3671 0.000163641C35.4803 0.000163641 29.8576 5.55856 29.8576 12.3664V24H32.4727V13.2711H52.2614V24H54.8767V12.3664C54.8767 5.55856 49.2537 0.000163641 42.3669 0.000163641H42.3671ZM42.3671 2.5855C47.249 2.5855 51.3028 6.07554 52.0872 10.6859L32.6036 10.6858C33.4317 6.07536 37.4855 2.5855 42.3671 2.5855ZM22.4476 11.9787C20.1376 9.0486 16.5633 7.15261 12.5098 7.15261C8.49966 7.15261 4.92536 9.04844 2.61532 11.9787V0.000163641H0V23.9569H2.61532V19.5188C2.61532 14.1327 7.06134 9.73795 12.5097 9.73795C17.9581 9.73795 22.404 14.1328 22.404 19.5188V23.9569H25.0193V19.5188C25.0631 16.675 24.0605 14.0466 22.4478 11.9785H25.0631V7.62939e-06H22.4478V11.9785L22.4476 11.9787ZM77.4988 13.6588C81.2909 13.6588 84.429 10.5997 84.429 6.80786C84.429 3.01605 81.2907 0.000163641 77.4988 0.000163641H59.5842V2.5855H77.4988C79.8526 2.5855 81.8139 4.48133 81.8139 6.85115C81.8139 9.22097 79.8959 11.1168 77.4988 11.1168L59.5842 11.1166V23.9999H62.1996V13.6587H76.627L74.8398 15.4254L83.4266 23.9137H87.1316L76.7141 13.6587H77.4988V13.6588ZM253.374 10.8583H242.478C240.167 10.8583 238.293 9.00545 238.293 6.72174C238.293 4.43819 240.167 2.58533 242.478 2.58533H258.736V0.0431371H242.478C238.729 0.0431371 235.722 3.05917 235.722 6.72158C235.722 10.384 238.773 13.4002 242.478 13.4002L253.374 13.4004C255.598 13.4004 257.428 15.2101 257.428 17.4074C257.428 19.605 255.597 21.4145 253.374 21.4145H236.027V23.9566L253.374 23.9567C257.036 23.9567 260 21.0268 260 17.4072C260 13.7879 257.036 10.858 253.374 10.858V10.8583Z" fill="#DF9F71"/>
</svg>
